<svg xmlns="http://www.w3.org/2000/svg" viewBox="124.5 76.5 263 358">
  <path fill="#F3D47C" d="M142.31 183.232c0 19.15 50.8 34.873 113.694 34.873 59.863 0 109.05-14.11 113.484-32.254-.203-2.42.2-5.24-.813-7.457-1.008-2.217-2.617-4.232-4.836-6.248 0-.2-.21-.2-.21-.2-1.202-1.413 3.634-3.224 4.84-4.837.606-1.012 1.216-2.02 1.42-3.02.2-3.833-1.216-4.84-4.44-7.062-3.63-2.416-4.434-.2-8.47-1.81l-.197-.206c-2.215-1.41.805-6.65-1.207-8.466-1.82-1.814-2.426.607-4.435-.807-1.608-1.21-2.02-3.424-.804-5.037 1.61-2.82 1.004-1.61 2.414-4.64 1.406-3.02 1.816-6.85.2-9.874-2.614-4.637-6.85-10.684-9.07-7.055-.806 1.41-2.216 4.23-3.825 3.426-3.23-1.81-4.84-5.643-4.84-9.27 0-3.227 2.82-1.814 4.638-4.637 3.02-4.837-4.638-10.483-9.27-10.69-7.064-.196-7.064 2.02-11.1 5.245-2.008 1.615-3.62-.404-6.042 0-4.835 1.21-6.245 5.846-14.918 2.82-3.63-1.408-2.012-4.03-3.43-7.66-1.004-2.617-4.022-4.635-5.238-7.053-3.823-7.454-8.46-8.868-15.52-8.667-3.832.2-5.64 6.447-9.27 7.66-2.016.605-5.648-5.848-7.664-5.848-4.227-.203-8.463 0-12.293 2.22-2.215 1.413 0 5.442 0 8.263 0 2.42 0 7.055-2.215 8.266-2.22 1.412-6.455-.807-8.87-1.412-8.464-2.014-13.704-12.498-20.56-3.428-1.416 2.02-.605 5.447-2.02 7.66-2.016 3.227-5.24 3.832-7.256 7.26-2.017 3.023-.2 7.86-2.42 10.883-1.206 1.612-5.44-2.216-7.456-1.614-5.645 1.613-12.297-2.215-17.537 1.613-4.436 3.224.602 10.08-2.822 14.515-1.815 2.416-7.657 0-9.88 2.016-2.617 2.418-.4 8.664-2.012 10.885-.402.602-.805.803-1.816.803-2.42 0-4.03 1.01-4.836 2.62-2.018 3.228-2.018 8.27-4.03 11.694-2.218 3.425-7.866 5.646-7.866 11.288-.8 1.616-1.203 3.43-1.203 5.244l.003-.002z"/>
  <path fill="#E91E25" d="M256.004 218.105c-62.895 0-113.693-15.723-113.693-34.873 0-1.814.404-3.63 1.21-5.242 0-5.643 5.647-7.863 7.864-11.287 2.014-3.426 2.014-8.467 4.03-11.693-17.136 9.477-26.81 21.77-24.995 36.082.2 1.41.4 2.824.804 4.03l28.223 186.858c.805 5.047.805 6.66 3.426 11.496 11.893 21.155 40.922 35.88 93.133 35.88 51.594 0 80.426-14.317 92.715-35.07 3.23-5.446 3.23-7.462 4.036-13.513l28.02-185.65c.402-1.207.605-2.62.806-4.03 1.41-10.077-3.023-19.15-11.688-27.007-.202 1.002-.813 2.01-1.418 3.02-1.207 1.614-6.043 3.425-4.84 4.837.207 0 .207 0 .207.2 2.22 1.612 3.83 3.833 4.837 6.25.813 1.614 1.013 3.228 1.013 4.84 0 .806 0 1.813-.2 2.618-4.437 18.145-53.625 32.256-113.49 32.255zm42.523 29.428c12.3-1.61 22.98-3.828 32.06-6.852L316.27 394.287c-7.262 2.418-15.315 4.43-24.39 5.84l6.647-152.593zm-42.523 2.42c5.44 0 10.48-.2 15.52-.404l-2.426 152.793c-4.234.203-8.668.203-13.094.203-4.44 0-8.875 0-13.105-.203l-2.42-152.795c5.04.204 10.277.403 15.523.403v.003zm-74.588-9.27c9.27 3.022 19.957 5.24 32.053 6.65l6.853 152.792c-9.275-1.41-17.336-3.422-24.596-5.84l-14.31-153.602zm153.803 144.73l20.76-156.024c8.06-5.236 14.11-11.086 18.145-17.734L348.92 373.72c-3.62 4.436-8.26 8.26-13.7 11.693zM156.014 229.39l20.766 156.024c-5.442-3.434-10.077-7.258-13.706-11.695l-25.2-162.064c4.236 6.65 10.08 12.498 18.14 17.733z"/>
  <path fill="#964E2E" d="M162.066 168.52c0 .8 6.246 2.012 7.258-1.412.402-1.012.2-2.02-.203-2.822-1.01-1.613-3.426-2.625-4.836-1.21-2.62 2.617-2.42 1.21-2.218 5.444zm161.657-56.24c-1.203-1.415-3.616-.405-4.633 1.208-2.215 4.234 4.633 8.264 7.06 4.03 2.01-3.627.198-2.82-2.427-5.24v.002zm-.805 45.956c0 4.234 6.25 5.24 6.25 0 0-3.424-.203-2.418-2.82-3.424-1.82-.607-3.43 1.614-3.43 3.424zm-29.023 35.077c0 4.436 6.246 5.24 6.246 0 0-3.428-.2-2.422-2.813-3.428-1.618-.604-3.43 1.61-3.43 3.428h-.002zm-110.46-34.067c0 4.436 6.243 5.24 6.243 0 0-3.428-.398-2.422-3.02-3.428-1.615-.603-3.224 1.612-3.223 3.428zM243.3 121.55c0 4.234 6.25 5.24 6.25 0 0-3.43-.207-2.416-2.826-3.43-1.612-.6-3.426 1.615-3.425 3.43zm23.182-16.526c0 4.23 6.246 5.037 6.246 0 0-3.432-.4-2.623-2.828-3.432-1.807-.8-3.418 1.414-3.418 3.432zm30.634 17.735c0 4.435 6.25 5.24 6.25 0 0-3.224-.402-2.417-2.816-3.427-1.82-.605-3.433 1.613-3.434 3.426zm-138.68 56.643c-2.42-3.426-2.216-1.21-5.847 0-1.61.805-1.815 3.225-.603 4.838 2.62 3.83 9.473-.807 6.45-4.837zm178.797-44.545c2.008-3.836 0-2.828-3.03-5.445-1.204-1.414-3.618-.404-4.634 1.21-2.216 4.235 5.04 8.67 7.663 4.235zm12.7 25.8c2.216 0 2.617-3.026 2.617-4.84 0-2.017-1.812-3.226-3.83-3.026-4.224.608-4.025 7.866 1.213 7.866zm7.255 18.14c-4.638.605-4.234 8.266.81 7.658 4.026-.4 2.218-1.207 2.823-4.635.4-1.81-1.82-3.223-3.632-3.022zm-46.36 7.46c2.214 4.03 9.675.4 7.456-4.034-2.215-3.83-2.418-1.61-6.047-.602-1.812.405-2.215 2.82-1.41 4.636zm-38.5 22.577c-3.432-3.832-9.075 1.81-6.044 5.24 1.4 1.41 3.82 1.813 4.832.2 2.016-3.022 3.827-2.417 1.21-5.44zm10.072-44.953c-.598-1.815-3.422-1.815-4.832-.403-3.43 2.823.398 8.265 4.435 5.042 2.613-2.22 1.41-2.02.397-4.64zm16.125-18.745c-3.827 2.824 1.01 10.08 5.242 7.053 3.63-2.617 1.004-2.617-.605-6.246-.6-1.815-3.226-1.815-4.637-.807zm-28.625-17.74c-3.616 3.23 2.828 11.088 6.863 7.463 3.828-3.633.398-3.025-2.022-7.264-1.008-1.608-3.422-1.406-4.84-.2zm-47.77-5.844c3.434 0 2.623-.202 3.434-2.62.805-1.61-1.416-3.426-3.432-3.426-4.03 0-5.238 6.047 0 6.046zM186.86 134.86c-2.82-3.23-2.42-1.012-5.847.6-1.612.81-1.41 3.428-.2 4.84 3.024 3.426 9.47-1.815 6.048-5.44zm23.783 9.067c3.228-3.83.206-2.822-2.62-6.45-1.01-1.612-3.63-1.01-4.834.407-3.024 3.626 4.23 10.08 7.455 6.043zm23.987-14.11c0-4.434-1.407-2.42-5.24-3.424-1.812-.404-3.427 1.607-3.427 3.424 0 5.243 8.666 5.043 8.667 0zm13.708 28.422c0 4.233 6.246 5.24 6.246 0 0-3.425-.2-2.42-2.82-3.425-1.61-.607-3.425 1.614-3.425 3.424zm8.265 27.615c-1.813.604-2.418 2.824-1.813 4.436 2.02 4.237 10.28 1.007 8.667-3.83-1.41-4.03-3.027-1.005-5.44-.804-.403 0-.806 0-1.415.2zm-16.324-1.21c-1.417-1.21-3.837-.2-4.642 1.413-2.416 4.033 4.436 8.266 6.855 3.83 2.014-3.63.2-2.623-2.214-5.243zm-8.872-11.486c-1.615 4.433 5.44 7.255 7.055 2.614 1.41-3.626 0-2.614-2.62-4.634-1.615-1.01-3.836.204-4.436 2.02zm-18.344-3.23c3.023 3.43 9.068-1.813 5.844-5.44-2.82-3.025-2.62-1.01-5.844.6-1.615.81-1.41 3.433 0 4.84zm-.406 29.23c-1.81-.81-3.625 1.208-3.83 3.02-.4 4.438 6.25 5.645 6.656.61.2-3.43-.2-2.42-2.826-3.63zm-30.435-4.434c.4 1.21 1.21 2.014 2.417 2.215h1.413c.203 0 .203 0 .402-.2 3.223-2.617 5.643-.605 4.03-5.04-1.61-4.84-9.878-1.41-8.263 3.026z"/>
  <path fill="#FFF" d="M176.78 385.414L156.016 229.39c-8.06-5.235-13.904-11.085-18.14-17.733l25.198 162.063c3.63 4.436 8.265 8.26 13.708 11.693h-.002zm4.636-144.732l14.313 153.604c7.26 2.418 15.32 4.43 24.594 5.84l-6.855-152.793c-12.098-1.41-22.783-3.628-32.054-6.65zm59.064 8.868l2.42 152.794c4.23.203 8.665.203 13.104.203 4.426 0 8.86 0 13.094-.203l2.426-152.795c-5.04.203-10.078.402-15.52.402-5.246 0-10.484-.2-15.525-.404v.002zm58.047-2.218l-6.648 152.793c9.072-1.41 17.127-3.422 24.39-5.84l14.315-153.604c-9.078 3.026-19.758 5.245-32.06 6.653h.002zm57.453-17.942l-20.763 156.024c5.44-3.434 10.082-7.258 13.7-11.695l25.206-162.064c-4.034 6.65-10.085 12.498-18.144 17.733z"/>
</svg>