<svg xmlns="http://www.w3.org/2000/svg" viewBox="0 219.5 612 353.31">
  <path fill="#E6B91E" d="M570.69 219.5H41.31C18.934 221.03 1.53 238.472 0 260.198V531.5c1.53 22.3 18.17 39.32 39.665 41.233.383.076.765.076 1.148.076h531.522C594.52 570.82 612 551.656 612 529.203v-266.1c0-22.72-17.748-41.844-40.392-43.604h-.957.04z"/>
  <path d="M581.334 368.467c-.583-3.702-2.24-7.568-5.063-11.516-3.002-3.866-7.257-6.827-12.723-9.048-5.467-2.056-11.918-3.167-19.623-3.167-6.54 0-14.874 1.234-20.52 3.496-5.466 2.47-10.528 6.17-15.232 10.982v-65.806h-54.658l.09.082v201.945h51.253l3.45-12.874c4.658 5.182 9.722 9.13 15.41 11.72 5.377 2.346 13.756 3.703 20.252 3.703 8.958 0 16.71-2.057 23.295-6.58 6.362-4.278 10.62-9.46 12.41-15.424 1.66-5.965 2.688-14.89 2.688-26.982v-56.675c0-12.094-.448-20.073-1.03-23.856zm-55.42 96.447c-.986 2.592-5.646 3.907-9.095 3.907-3.228 0-5.692-1.314-6.72-3.7-1.212-2.468-1.794-8.226-1.794-17.11v-53.385c0-9.13.582-14.89 1.613-17.11.985-2.22 3.224-3.29 6.45-3.29 3.45 0 8.063 1.07 9.274 3.865 1.343 2.59 1.79 8.226 1.79 16.534v51.822l.047.04c.002 9.668-.536 15.838-1.566 18.428zM432.1 326.186c-1.21-6.58-4.257-12.462-9.32-17.686-5.062-5.347-12.544-9.048-22.266-11.516-9.543-2.22-25.537-3.537-52.866-3.537h-42.56V495.39h68.858l.045.043c13.53 0 23.88-.823 30.556-2.057 6.9-1.316 12.544-3.7 17.025-7.28 4.66-3.29 7.885-8.226 9.722-14.313 1.793-6.17 3.047-18.22 3.047-36.192v-70.947c0-19.127-.808-32-2.24-38.457zm-52.195 105.208c0 13.45-1.03 21.635-2.822 24.596-1.792 3.167-6.9 4.648-15.01 4.648V328.16c6.005 0 10.306.576 12.546 1.892l.044-.124c2.24 1.11 3.583 2.96 4.21 5.594.896 2.468 1.03 8.473 1.03 17.562v78.31zM211.585 293.488l-13.17 94.433-8.065-51.287c-2.463-16.576-4.704-30.847-6.9-43.186H109.71V495.39h49.82l.224-133.257 20.833 133.258h35.483l20.026-136.3v136.3h49.64V293.448h-74.146v.04zM33.5 293.488h56.898v201.945H33.5z"/>
</svg>