<svg xmlns="http://www.w3.org/2000/svg" viewBox="3.5 0 99 95">
  <path fill="#FC0" d="M98.028 47.565c0 24.02-19.986 43.49-44.64 43.49-24.655 0-44.64-19.47-44.64-43.49 0-24.02 19.985-43.492 44.64-43.492 24.654 0 44.64 19.472 44.64 43.492z"/>
  <path fill="#001B36" d="M93.443 47.605c0 21.676-17.933 39.25-40.057 39.25S13.33 69.28 13.33 47.604c0-21.675 17.933-39.248 40.056-39.248S93.443 25.93 93.443 47.605z"/>
  <path fill="#FFF" d="M20.652 54.127l6.453-6.823 3.876 3.578c-.702-5.222.54-9.52 3.73-12.89 1.695-1.792 3.54-3 5.533-3.627 1.993-.626 4.147-.66 6.458-.107-.35-2.628-.228-5 .37-7.11.596-2.115 1.66-3.978 3.186-5.595 1.944-2.056 4.01-3.403 6.203-4.044 2.19-.643 4.44-.557 6.743.255 1.693.61 3.894 2.166 6.602 4.666l18.15 16.758-7 7.402-16.226-14.98c-2.816-2.6-4.875-4.022-6.176-4.27-1.717-.302-3.248.257-4.594 1.68-.98 1.036-1.582 2.307-1.803 3.812s.094 3.03.95 4.58c.857 1.546 2.622 3.554 5.294 6.02L72.035 56.02l-7 7.4-15.558-14.36c-2.762-2.55-4.668-4.064-5.72-4.54-1.05-.48-2.033-.62-2.95-.43-.913.19-1.82.76-2.718 1.71-1.08 1.14-1.74 2.456-1.98 3.945-.24 1.488.042 2.974.844 4.454.802 1.48 2.566 3.48 5.292 5.996L56.037 72.93l-7 7.402L20.65 54.127z"/>
</svg>