<svg version="1" xmlns="http://www.w3.org/2000/svg" width="1346.667" height="1346.667" viewBox="0 0 1010.000000 1010.000000"><path d="M428.7 3c-.4.8-1.3 5.1-2.1 9.5s-3.1 15.4-5.1 24.5c-1.9 9.1-4.5 21.9-5.6 28.5-4.1 23.3-11 39.1-32.3 74.5-21.5 35.5-28.2 43.6-65.7 80-14.4 14-28.2 28.1-30.5 31.3-2.4 3.2-7.7 9-11.8 12.8-4.2 3.9-9 9.6-10.7 12.7-1.8 3.1-6.5 9.5-10.4 14.2-23.7 28.3-46.6 60.5-69.2 97.4-11.2 18.1-71.6 137.5-79.8 157.5-14.1 34.5-21.7 77.5-20.1 114 .6 15.5 1.2 19.5 11.3 75.6 9 50.7 18.9 78.5 38.2 107.6 12.7 19.1 23 29.6 46.6 47.2 39.3 29.4 96.7 62.8 143.9 83.6 30.7 13.6 37.7 16.1 60.1 21 23.7 5.3 37.2 7.2 76.5 10.6 43.8 3.8 68 4.8 92 4.1 53.2-1.7 83.8-6 141.5-20.1 59.1-14.4 64-16.3 105.5-40.4 22.7-13.2 30.9-19.1 44-31.5 5.3-5 15.3-14.4 22.3-20.9 17.8-16.6 29.9-32.3 39.5-51.3 4.4-8.6 8.5-30.8 14.5-77.4l3.4-26.5-.2-55c-.4-68.2-1.8-83.1-10.9-110.7-4.7-14.4-8.6-22.6-19.3-40.3-15.6-26-21.4-36.5-30.4-55-8.3-16.8-9.7-19.1-22.5-35-24.4-30.3-35.9-42.6-58.4-62.1-20.4-17.6-38.1-30.5-59.5-43.4-22.8-13.7-37.1-24.6-60.5-45.9-5.8-5.3-19-16.8-29.5-25.5-24-20.2-47.7-43.8-78.1-78.1-13.1-14.9-31.1-34.5-39.9-43.6-8.8-9.1-18.6-20.2-21.9-24.8-11.3-15.8-28.9-46.7-32.5-57.2-2.7-8-6.2-14.5-12.1-22.4-2.9-3.9-6-8.6-7-10.5-1.6-3.2-11.1-25.5-12.2-29-.5-1.3-.6-1.3-1.1 0z"/></svg>