<?xml version="1.0" standalone="no"?>
<!DOCTYPE svg PUBLIC "-//W3C//DTD SVG 1.1//EN" "http://www.w3.org/Graphics/SVG/1.1/DTD/svg11.dtd" >
<svg xmlns="http://www.w3.org/2000/svg">
<metadata></metadata>
<defs>
<font id="blessings_through_raindropsRg" horiz-adv-x="1090" >
<font-face units-per-em="2048" ascent="1638" descent="-410" />
<missing-glyph horiz-adv-x="1024" />
<glyph horiz-adv-x="0" />
<glyph unicode="&#xd;" horiz-adv-x="1024" />
<glyph unicode=" "  horiz-adv-x="1024" />
<glyph unicode="&#x09;" horiz-adv-x="1024" />
<glyph unicode="&#xa0;" horiz-adv-x="1024" />
<glyph unicode="!" horiz-adv-x="378" d="M16 1288q0 2 8 12t19 20l22 20t17 14q14 14 25 8t20 -19t15 -30t8 -25q4 -30 14 -95t23 -146t27 -171t27 -172t23 -147t16 -95q0 -4 2 -19t2 -19q-14 0 -29 -7t-29 -14t-27 -11t-23 4q-12 36 -30 111t-37 168t-37 193t-32 186t-21 150t-3 84zM212 50q0 68 43 87t103 19 v-54t-7 -52t-23 -39t-48 -15q-24 0 -46 12t-22 42z" />
<glyph unicode="&#x22;" horiz-adv-x="626" d="M72 1168q0 22 14 36t36 14q16 0 38 -7t43 -52t36 -144t15 -281q0 -8 -26 -20t-40 -12q-8 0 -21 12t-13 20q4 52 9 85t6 62t-6 60t-25 79q-2 4 -11 23t-21 42t-21 42t-11 23q0 2 -1 8t-1 10zM354 1230q36 38 65 35t50 -35t32 -88t9 -124t-17 -141t-45 -139h-41t-19 22 q0 30 3 45t8 28t8 29t3 46q0 44 -9 84t-19 78t-19 77t-9 83z" />
<glyph unicode="#" horiz-adv-x="1966" d="M22 354q0 6 1 23t5 35t13 33t25 17l528 66q18 2 26 14t9 27t0 31t-1 24q0 14 -1 47t-4 68t-10 61t-19 26h-496q-8 0 -20 25t-12 39q0 10 12 23t20 13q18 -2 65 -3t100 -1t100 1t67 3q96 6 140 38t57 76t7 94t-10 92t4 70t50 28q38 0 49 -36t13 -85t2 -99t18 -80h20t29 -1 t29 -1h20q48 0 85 1t74 5t78 11t95 17q20 32 29 80t12 97t2 93t-1 70q6 0 23 -2t36 -7t33 -13t14 -20v-280h478q12 0 20 -13t13 -31t7 -34t2 -22h-504v-328h496q2 0 11 -6t20 -14t20 -17t13 -15v-6q0 -4 1 -5t1 -3q0 -16 -7 -34t-27 -18h-496l-32 -32q2 -18 2 -60v-89v-89 t-2 -60q-2 -28 -13 -48t-37 -20q-4 0 -9 1t-7 3q-8 4 -19 14l-22 20t-18 19t-7 11v294q-6 0 -44 -2t-91 -6t-113 -10t-111 -12t-85 -15t-34 -17v-398q0 -4 -9 -9t-23 -10t-28 -9t-24 -4q-6 0 -20 12t-14 20v362q-152 0 -301 -20t-303 -20zM760 560h53t91 4t108 11t103 22 t77 37t30 56q0 58 -11 121t-21 115h-84q-24 0 -81 -4t-116 -13t-104 -22t-45 -29v-298z" />
<glyph unicode="$" d="M54 120q0 38 15 59t55 43q12 -68 51 -118t113 -50q26 0 71 10t89 26t76 39t32 51q0 6 -1 22t-1 20q-2 18 -6 65t-10 99t-10 100t-6 66q-14 32 -44 48t-67 25t-76 17t-71 24t-53 46t-21 86q-10 68 21 132t77 116t95 90t73 58q0 64 -17 127t-17 127q0 28 8 45t58 17 q10 0 24 -4t27 -10t22 -12t9 -10v-238q14 0 56 4t95 7t112 1t107 -14t80 -37t32 -69q0 -28 -20 -39t-48 -11q-46 0 -89 3t-86 8t-89 8t-100 3v-386l19 -4t45 -9t55 -11t47 -8q42 -6 89 -9t86 -16t65 -44t26 -91q0 -76 -34 -135t-86 -110t-113 -96t-115 -93v-264h-134v166 h-20q-70 0 -138 -17t-142 -17q-38 0 -77 8t-70 27t-50 50t-19 79zM318 836q0 -70 51 -96t119 -26h34l-18 322q-80 -46 -133 -91t-53 -109zM652 518q2 -16 7 -53t11 -79t10 -80t6 -52q2 0 8 -1t10 -1q38 0 76 23t69 58t50 76t19 77q0 38 -23 58t-57 29t-71 11t-65 2 q-20 0 -35 -14t-15 -36v-18z" />
<glyph unicode="%" horiz-adv-x="1450" d="M80 1036q0 86 46 164t117 138t157 96t166 36q44 0 78 -23t57 -58t35 -77t12 -80q0 -76 -34 -158t-91 -149t-132 -111t-155 -44q-120 0 -188 72t-68 194zM212 1046q0 -48 2 -76t13 -44t35 -21t70 -5q50 -6 106 23t102 79t76 112t30 120q-8 64 -31 82t-63 18 q-60 0 -120 -22t-109 -61t-80 -92t-31 -113zM519 66q1 20 1 36v41t2 41q54 162 100 306t91 285t92 286t105 307q8 20 20 44t29 46t38 37t47 15v-108l-422 -1316q8 -32 -2 -68t-48 -36q-24 0 -35 13t-15 32t-3 39zM863 161q-13 41 3 91q0 50 12 121t41 135t77 110t120 46 q106 8 165 -33t80 -108t6 -149t-56 -154t-104 -124t-139 -60q-46 -4 -88 11t-73 44t-44 70zM966 266q0 -34 12 -67t54 -33q48 0 91 25t75 64t50 86t18 93q0 42 -38 71t-80 29q-40 0 -73 -29t-57 -71t-38 -88t-14 -80z" />
<glyph unicode="&#x26;" horiz-adv-x="1074" d="M90 344q0 60 21 118t46 115t46 112t21 109q0 84 -18 161t-18 161q0 44 2 102t19 109t56 86t115 35q98 -10 154 -50t77 -99t13 -129t-37 -140t-73 -135t-96 -113q0 -4 -1 -13t-1 -13q0 -56 23 -114t60 -113t85 -103t100 -84v302q-10 4 -23 25t-11 31q12 26 34 39t49 17 t57 3t56 -1h63t77 -7t65 -25t27 -54q0 -16 -33 -26t-74 -16t-78 -9t-47 -3q-10 -90 -22 -178t-8 -182q12 -6 45 -21t69 -33t69 -34t47 -22q26 -12 27 -23t-11 -22t-31 -21t-35 -18q-36 0 -68 9t-64 21t-66 21t-70 9q-52 0 -87 -24t-70 -53t-78 -50t-107 -15q-72 8 -127 45 t-93 89t-57 112t-19 112zM258 342q8 -78 43 -140t99 -80q26 0 58 3t61 12t49 26t20 43q-30 44 -69 92t-76 100t-70 108t-51 116q-38 -48 -55 -125t-9 -155zM322 1282l32 -358q36 46 62 79t42 62t23 60t7 71q0 20 -4 46t-16 48t-32 37t-52 15q-28 0 -45 -10t-17 -50z" />
<glyph unicode="'" horiz-adv-x="232" d="M56 976q0 24 2 71t13 94t32 83t57 36q38 -126 27 -195t-40 -97t-60 -22t-31 30z" />
<glyph unicode="(" horiz-adv-x="430" d="M46 618q0 52 6 138t20 184t39 197t64 179t93 131t128 51v-44q-58 -90 -104 -191t-78 -207t-49 -215t-17 -215q0 -110 9 -189t30 -138t54 -104t81 -85t111 -82t145 -96q2 0 3 -5t1 -9q0 -28 -22 -41t-46 -13q-96 0 -168 35t-124 95t-86 137t-54 161t-28 168t-8 158z" />
<glyph unicode=")" horiz-adv-x="414" d="M4 1466q0 24 11 56t41 32q48 0 88 -44t72 -116t57 -166t43 -195t30 -200t20 -182t11 -143t3 -82q0 -46 -4 -111t-16 -135t-33 -138t-55 -123t-84 -88t-118 -33q0 70 33 136l72 144t72 178t33 240q-8 114 -21 248t-42 266t-80 251t-133 205z" />
<glyph unicode="*" horiz-adv-x="1604" d="M121 406q-5 32 19 44q44 22 91 39t90 18t79 -20t62 -71q-22 -12 -69 -36t-98 -42t-96 -19t-63 35q-10 20 -15 52zM392 1112q-20 40 4 72q6 8 17 18t23 17t25 8t23 -7q40 -30 75 -65t54 -73t17 -80t-38 -86q-20 14 -62 46t-80 71t-58 79zM393 770q25 34 105 43t196 -13 q18 110 54 190t75 101t74 -33t53 -212q116 40 196 56t108 -11t-4 -106t-140 -229q56 -118 66 -183t-23 -81t-109 13t-190 97q-112 -86 -194 -132t-124 -34t-35 90t73 240q-126 64 -166 117t-15 87zM771 153q-1 43 19 79t72 62q12 -22 36 -69t42 -98t19 -96t-35 -63 q-20 -10 -52 -15t-44 19q-22 44 -39 91t-18 90zM1048 1006q0 26 2 79t12 105t31 92t61 38q10 0 24 -3t27 -9t21 -15t8 -23q-2 -50 -10 -99t-28 -86t-56 -60t-92 -19zM1212 566q20 14 63 45t91 56t92 32t66 -25q14 -18 23 -49t-13 -47q-42 -28 -85 -51t-85 -30t-81 7t-71 62z " />
<glyph unicode="+" horiz-adv-x="910" d="M154 620q0 14 7 31t29 17l234 -4l-16 244h23t45 -4t44 -13t24 -29l4 -212l216 32q32 0 47 -30t15 -62q0 -4 -2 -9t-4 -5l-272 -50l36 -224q0 -2 -7 -11t-18 -20t-22 -21t-17 -14q-4 -2 -8 -2h-10q-18 0 -29 7t-21 27q-6 44 -7 76t-3 60t-9 56t-23 66l-154 12q-10 0 -28 7 t-34 19t-28 26t-12 30z" />
<glyph unicode="," horiz-adv-x="232" d="M64 -82q0 24 2 71t13 94t32 83t57 36q38 -126 27 -195t-40 -97t-60 -22t-31 30z" />
<glyph unicode="-" horiz-adv-x="1018" d="M38 630q0 6 2 10q0 4 2 6q92 14 175 22t164 11t164 4t175 1h55t69 -1t59 -1h29l34 -102q-158 -6 -306 -12q-64 -2 -131 -5t-131 -6t-122 -5t-102 -4h-40q-34 0 -65 22t-31 60z" />
<glyph unicode="." horiz-adv-x="240" d="M58 104q16 30 50 39t68 -7t34 -60q0 -30 -16 -48t-37 -24t-44 -1t-35 23q-36 48 -20 78z" />
<glyph unicode="/" horiz-adv-x="926" d="M14 50q0 18 12 43t28 51t33 49t27 39q10 14 41 57t72 100t87 122t87 123t71 101t40 57q12 18 33 56t48 87t56 103t54 103t45 88t28 59h108q0 -52 -33 -136t-88 -185t-126 -212t-145 -219t-146 -206t-129 -172t-94 -118t-41 -44q-24 0 -46 12t-22 42z" />
<glyph unicode="0" horiz-adv-x="1304" d="M30 626q0 78 10 171t33 186t60 180t94 154t133 107t176 40q0 -40 -35 -78t-80 -76t-91 -75t-66 -77q-58 -120 -80 -235t-22 -247q0 -90 20 -187t66 -176t122 -131t190 -52q116 0 219 36t180 102t121 162t44 216q0 122 -54 207t-135 141t-175 90t-175 55l-135 35t-54 32 q0 16 7 28t27 22q94 12 191 3t189 -40t173 -82t142 -121t97 -159t36 -195q0 -148 -59 -270t-158 -209t-229 -135t-270 -48q-118 0 -212 59t-161 150t-103 202t-36 215z" />
<glyph unicode="1" horiz-adv-x="264" d="M26 1376q6 18 23 27t38 13t41 4h28q10 -156 13 -342t8 -371t17 -353t38 -288q-12 -20 -46 -43t-54 -23q-6 0 -18 12t-16 20q-14 76 -23 181t-14 224t-8 247t-6 252t-8 237t-13 203z" />
<glyph unicode="2" horiz-adv-x="1552" d="M48 1206q0 38 58 77t138 71t165 51t139 19q82 0 169 -21t159 -65t118 -114t46 -168q0 -80 -39 -170t-99 -182t-134 -180t-145 -164t-131 -136t-90 -94q128 26 272 50t290 46t287 42t263 36v-25t-3 -45t-12 -45t-29 -23l-1238 -184q-36 -10 -56 10t-24 49t12 59t52 42 q76 74 181 172t207 214t186 246t120 266q0 66 -32 113t-81 78t-108 46t-113 15q-64 0 -121 -22t-112 -47t-111 -47t-118 -22q-24 0 -45 11t-21 41z" />
<glyph unicode="3" horiz-adv-x="1074" d="M48 82q0 18 7 29t27 23q118 -12 202 0t159 46t152 90t181 128q102 64 102 186q0 32 -23 54t-57 35t-71 18t-65 5q-68 0 -128 -27t-118 -59t-116 -59t-120 -27q-12 0 -26 2t-24 10t-16 22t0 36q8 36 52 75t103 83t126 91t123 100t93 110t37 119q0 66 -31 77t-93 11 q-60 0 -116 -18t-110 -41t-110 -41t-116 -18q2 74 51 122t120 75t150 38t143 13q48 0 92 -7t77 -27t53 -55t20 -89q0 -56 -16 -106t-41 -96t-58 -92t-67 -94q48 4 123 4t147 -18t124 -64t52 -136q0 -82 -46 -160t-119 -146t-167 -124t-189 -97t-184 -63t-155 -22 q-16 0 -39 6t-44 16t-36 26t-15 36z" />
<glyph unicode="4" horiz-adv-x="1138" d="M32 1422q10 26 28 30t38 4q22 0 40 -4t28 -30q16 -94 24 -196t11 -205t1 -203t-4 -192q2 -18 18 -26t36 -10t38 0t26 2q30 0 79 8t106 20t115 27t104 30t76 28t30 23l-14 708q0 10 10 16t24 8t28 2h20q20 0 33 -41t20 -106t12 -146t9 -159t9 -145t15 -105q4 2 20 3t33 -1 t31 -10t14 -24q0 -38 -32 -67t-66 -35l4 -614q-38 -18 -62 -20t-39 6t-22 21t-11 25q2 20 2 81t-1 129t-2 128t-3 80q-10 62 -60 73t-124 -3t-162 -40t-173 -39t-158 -1t-115 76q0 24 1 76t1 117v137v138t-1 117t-1 77q0 12 -5 45t-10 70t-11 70t-8 47z" />
<glyph unicode="5" horiz-adv-x="1138" d="M46 98q0 20 11 38t27 25t33 2t31 -29h22t35 -1t36 -1h23q52 0 123 6t146 21t149 40t132 64t94 94t36 127q-24 74 -71 114t-108 56t-132 13t-142 -12t-139 -19t-124 -10t-86 40t-44 96t-16 116t-2 98q-2 50 -3 92t10 75t40 53t89 26q24 2 73 8t110 12t130 14t130 14 t110 11t73 7q32 -4 42 -23t5 -38t-20 -33t-33 -8q-72 -30 -151 -39t-155 -12t-143 -6t-114 -18t-68 -50t-3 -103q0 -6 2 -33t6 -56t13 -53t25 -24q250 42 408 30t249 -62t128 -129t45 -169q6 -82 -29 -148t-97 -116t-146 -87t-179 -61t-193 -37t-188 -15q-28 0 -63 2t-65 12 t-51 30t-21 56z" />
<glyph unicode="6" horiz-adv-x="910" d="M25 389q-17 143 45 331q10 44 25 104t32 123t35 124t32 109t25 78t13 30h106q-24 -134 -56 -243t-60 -214t-46 -214t-16 -241q40 38 92 81t113 78t132 57t151 20q32 0 74 -22t80 -55t65 -72t27 -75q-68 -162 -174 -253t-218 -116t-217 10t-174 126t-86 234zM238 242 q0 -42 36 -63t90 -23t117 15t119 49t96 79t46 107q0 40 -32 62t-66 22q-26 0 -67 -11t-86 -29t-90 -43t-81 -52t-59 -56t-23 -57z" />
<glyph unicode="7" horiz-adv-x="1074" d="M14 1272q0 22 14 37t36 15q108 -36 219 -35t222 17t222 34t219 16q28 0 46 -9t16 -59q0 -14 1 -49t1 -74v-75v-50q0 -48 -1 -144t-6 -212t-16 -238t-31 -222t-52 -164t-78 -64q-30 0 -41 30t-11 56q0 110 17 224t36 228t36 229t17 229q0 14 -1 41t-5 60t-12 67t-20 62 q-178 -30 -356 -32t-372 0q-10 2 -27 9t-33 18t-28 25t-12 30z" />
<glyph unicode="8" horiz-adv-x="1158" d="M46 1016q0 114 54 201t139 145t188 88t199 30h30t46 -1t45 -2t29 -1t20 -12t12 -20q0 -4 -4 -14t-9 -21t-10 -20t-9 -11q-68 -4 -139 -12t-138 -24t-125 -43t-102 -70t-70 -105t-26 -148q-4 -90 43 -148t119 -83t158 -19t160 44t123 106t49 166q0 56 -26 88t-66 49 t-91 23t-101 10q-2 4 -3 16t-1 16q0 44 34 56t68 12q60 0 117 -13t101 -41t71 -72t27 -106q0 -64 -17 -122t-17 -118q0 -10 27 -46t58 -88t58 -116t27 -130q0 -110 -60 -196t-151 -145t-201 -90t-208 -31q-74 0 -122 24t-75 65t-38 94t-11 113q0 88 12 158t56 142 q-60 48 -107 90t-78 90t-48 106t-17 136zM328 314q0 -84 50 -132t134 -48q76 0 156 22t146 66t109 109t43 149q0 40 -3 77t-17 69t-42 58t-78 44q-42 -42 -96 -67t-111 -45t-110 -41t-94 -53t-65 -81t-22 -127z" />
<glyph unicode="9" horiz-adv-x="1122" d="M28 1014q0 106 58 188t145 139t189 86t190 29q38 0 112 -1t149 -16t131 -49t56 -100q0 -30 -6 -51t-28 -49q10 -292 2 -579t-34 -579q-24 -16 -42 -25t-42 -9q-22 0 -32 10t-15 24t-5 30v30q0 172 18 341t18 343v56t-1 85t-1 84v55q-108 -130 -255 -214t-323 -84 q-128 0 -206 62t-78 194zM162 1020q0 -22 1 -41t7 -35t20 -30t42 -24q6 0 22 -1t34 -2t35 -2t23 -1q76 0 161 29t157 81t119 124t47 160q0 34 -20 51t-48 23t-60 5t-56 -1q-74 0 -159 -20t-157 -62t-120 -105t-48 -149z" />
<glyph unicode=":" horiz-adv-x="280" d="M40 250q0 20 9 31t22 16t29 6t30 1q78 0 78 -86q0 -16 -6 -33t-26 -17q-12 0 -34 5t-45 16t-40 26t-17 35zM74 662q0 24 11 47t39 23q20 0 31 -8t16 -20t6 -27t1 -29q0 -22 -2 -49t-34 -33q-42 20 -55 41t-13 55z" />
<glyph unicode=";" horiz-adv-x="378" d="M4 -378q12 14 36 56t51 89t50 90t29 61q0 4 1 32t1 42q0 36 -7 64t-16 55t-16 55t-7 62q58 0 93 -14t55 -42t26 -69t6 -93q0 -48 -17 -115t-49 -129t-79 -105t-107 -43q-6 0 -26 1t-24 3zM102 662q0 28 22 40t46 12q36 0 68 -23t32 -63q0 -22 -14 -36t-36 -14 q-14 0 -34 6t-39 18t-32 27t-13 33z" />
<glyph unicode="&#x3c;" horiz-adv-x="760" d="M106 678l562 264q80 -30 88 -57t-22 -41l-462 -232q48 -94 100 -141t104 -76t101 -51t91 -64q2 0 4 -12t2 -18q0 -44 -34 -57t-70 -13q-52 0 -93 17t-76 45t-66 64t-63 74q-18 22 -47 61t-55 82t-45 85t-19 70z" />
<glyph unicode="=" horiz-adv-x="710" d="M62 584q0 14 7 33t29 19h396q44 0 65 -32t21 -70h-482q-22 0 -29 18t-7 32zM64 376q0 14 7 33t29 19h396q44 0 65 -32t21 -70h-482q-22 0 -29 18t-7 32z" />
<glyph unicode="&#x3e;" horiz-adv-x="626" d="M60 990q0 30 21 42t45 12q4 0 17 -2t17 -2q90 -106 197 -203t233 -161v-132q0 -2 -23 -26t-55 -56t-66 -64t-56 -50q-10 -10 -35 -32t-57 -45t-65 -41t-57 -18q-16 0 -30 12t-24 28t-17 33t-11 27q114 52 208 119t156 181q-92 68 -180 144t-184 152q-16 22 -25 41t-9 41z " />
<glyph unicode="?" horiz-adv-x="744" d="M16 1122q134 170 346 170q48 0 109 -9t114 -34t90 -67t37 -108q0 -76 -28 -144t-71 -128t-96 -112t-103 -96q-6 -28 -1 -57t14 -60l18 -62t11 -61q-56 -24 -94 -3t-59 69t-28 112t1 124q0 18 23 34t56 35t73 44t73 62t56 88t23 121q0 40 -21 69t-54 47t-71 27t-72 9 q-40 0 -74 -16t-67 -36t-67 -36t-72 -16q-20 0 -38 4t-28 30zM446 66q0 54 22 62t56 8h20t29 -3t26 -11t11 -24q0 -44 -39 -72t-77 -28q-48 0 -48 68z" />
<glyph unicode="@" horiz-adv-x="1584" d="M104 736q0 130 50 261t143 237t226 173t297 67q118 0 212 -49t168 -128t127 -181t88 -208t51 -209t16 -183q0 -122 -56 -217t-150 -161t-218 -100t-260 -34q-96 0 -185 34t-166 91t-140 131t-108 155t-70 164t-25 157zM240 745q2 -115 41 -227t114 -200t184 -145t253 -61 q130 0 243 46t189 123t107 179t-3 216q-10 -10 -31 -33t-46 -49t-54 -45t-55 -19q-40 0 -72 14t-59 37t-49 50t-40 55q-40 -42 -70 -71t-61 -48t-69 -28t-94 -9q-96 8 -148 56t-67 116t5 144t66 140t115 104t155 36q44 0 71 -11t73 -39q6 -20 26 -70t42 -106t43 -105t31 -67 q34 -60 63 -74t52 1t42 52t33 76t23 73t15 46q-28 60 -64 132t-90 136t-129 111t-183 57q-156 6 -270 -43t-189 -133t-110 -193t-33 -224zM560 772q0 -22 6 -47t20 -46t36 -36t56 -15q50 0 88 18t64 48t39 67t13 77q0 18 -5 47t-15 57t-28 52t-42 32q-52 18 -94 -8t-73 -71 t-48 -95t-17 -80z" />
<glyph unicode="A" horiz-adv-x="1252" d="M14 70q78 152 148 328t133 357t117 358t96 331q25 8 48.5 8t45.5 -8q44 -16 70 -66l300 -716q76 -18 92 -70q10 -32 10 -74q0 -26 -4 -56q4 -24 25 -63t46 -85t50 -94t37 -92q8 -29 8 -55q0 -13 -2 -24q-6 -35 -42 -53q-42 0 -72 36t-51 89t-39 114t-35 113t-39 85 t-52 29l-560 -64q-22 -18 -50 -67t-56 -106t-53 -111t-41 -82q-4 -8 -29 -20t-35 -12q-26 0 -48 25q-19 21 -19 39q0 3 1 6zM408 590q0 -20 3 -29t13 -12q8 -2 20 -2h9q19 1 51 1q24 2 68 8t96 12t107 13t97 13q-6 14 -21 52t-35 88t-42 104t-42 104t-36 87t-24 53 q-6 10 -16 28t-24 38t-29 37t-29 27q-10 -10 -24 -48t-29 -91t-31 -118t-31 -126t-28 -115t-21 -88q0 -2 -1 -16t-1 -20z" />
<glyph unicode="B" horiz-adv-x="1144" d="M28 1364q2 12 44 23t105 20t140 17t149 13t129 6h22q41 0 61 -3q36 -10 70 -16t60 -22t40 -47q9 -20 9 -50q0 -17 -3 -37q-10 -78 -43 -153t-79 -146t-102 -135t-112 -118q58 2 110 2q77 0 137 -4q101 -6 168 -20t104 -35t54 -45t20 -52q2 -17 2 -33q0 -11 -1 -21v-19 q0 -91 -35 -167q-39 -84 -110 -147t-168 -105t-209 -61q-93 -16 -191 -16q-21 0 -41 1q-120 4 -238 32q-16 178 -23 350t-14 339t-19 329t-36 320zM154 1252l44 -588q4 -1 9 -1q25 0 60 18q41 21 83 51t80 63t60 53q32 30 69 75t70 96t56 103t29 100q2 15 2 28q0 32 -14 48 q-20 22 -76 30q-38 6 -81 6q-16 0 -34 -1q-63 -3 -126 -14t-123 -29t-108 -38zM210 520l16 -366q98 -54 201 -57q10 0 19 -1q92 0 177 27q93 29 169 82t122 114t52 120q1 7 1 13q0 50 -41 88q-46 42 -152 56q-35 5 -79 5q-88 0 -209 -19q-32 -6 -79 -15t-91 -19t-75 -18 t-31 -10z" />
<glyph unicode="C" horiz-adv-x="992" d="M48 826q0 64 5 136t21 143t44 136t74 115t113 80t161 30q90 0 163 -35t123 -95t77 -138t27 -164h-106q-8 50 -25 100t-44 92t-67 70t-96 36q-26 3 -49 3q-44 0 -78 -12q-53 -19 -91 -55t-61 -85t-36 -103t-18 -107t-5 -97q0 -32 5 -99t18 -149t35 -170t55 -160t79 -118 t108 -46q58 0 112 36t105 79t99 79t94 36q22 0 37 -13t15 -35q0 -68 -51 -126t-123 -100t-152 -66t-136 -24q-92 0 -160 43t-116 114t-79 160t-48 181t-23 178t-6 150z" />
<glyph unicode="D" horiz-adv-x="1106" d="M18 1268q-4 15 -4 29q0 29 20 50q30 31 83 48t115 21q31 2 59.5 2t54.5 -2q108 -24 230 -79t226 -134t172 -183t68 -226q-6 -160 -84 -300t-197 -246t-263 -171t-282 -77q-28 20 -41 42t-18 47t-6 52t-3 57q-2 28 -13 111t-25 194t-30 235t-29 233t-23 190t-10 107z M138 1268q12 -144 31 -293t38 -294t36 -284t25 -263q12 -3 26 -3q33 0 78 16q64 23 136 69t145 111t134 139t103 154t50 156q0 84 -48 161t-121 142t-164 115t-180 77t-166 28h-5q-73 0 -118 -31z" />
<glyph unicode="E" horiz-adv-x="1454" d="M38 1402q14 0 40 -3t50 -12t41 -26t11 -47q78 20 172 45t194 46t201 35t195 14q8 0 23 -1t31 -2t28 -3t14 -2q22 -28 26 -46t0 -30t-13 -17t-13 -5h-20q-83 0 -186 -14q-116 -16 -235 -43t-229 -64t-188 -79q8 -70 23 -145q10 -49 10 -96q0 -25 -3 -49q188 0 374 13 t374 13q22 0 36 -13t14 -35q0 -18 -7 -29t-29 -21q-22 -2 -69 -7t-106 -12t-123 -14t-123 -14t-106 -13t-69 -8q-6 0 -25 -4t-40 -9t-40 -11t-25 -8q0 -120 11 -241t23 -247q66 -4 131 -4q44 0 87 2q108 4 216 12l216 16t218 10q14 0 56 1h12q36 0 74 -5q44 -6 79 -24 t35 -56q0 -20 -7 -31t-27 -21q-144 6 -292 7h-30l-266 -8q-148 -9 -291 -32t-275 -67q-46 0 -75 15t-29 67q0 30 6 47t13 32t13 33t6 52q0 134 -18 281t-39 297t-38 298t-17 282z" />
<glyph unicode="F" horiz-adv-x="888" d="M50 1342q78 24 164 39t167 23t149 10q34 1 61.5 1t48.5 -1q128 -6 168 -30t17 -47t-97 -36q-31 -5 -67 -5q-49 0 -107 10q-32 -2 -79 -7t-98 -11t-98 -13t-77 -15q0 -8 1 -41t2 -80t3 -103t5 -108t6 -95t7 -67q86 12 163 19t154 13t154 11t163 11q0 -62 -37 -98t-96 -53 t-130 -21t-141 -4t-130 1h-13q-51 0 -81 -7l-16 -626q0 -10 -9 -13t-22 -3t-26 1t-21 1q-30 0 -33 70q-2 42 -2 116q0 49 1 113v68q0 143 -6 348q-8 257 -48 629z" />
<glyph unicode="G" horiz-adv-x="1386" d="M46 744q0 158 54 298t152 244t231 164t293 60v-88q-126 -34 -235 -92t-189 -141t-126 -194t-46 -251q0 -104 30 -197t88 -164t142 -113t192 -42q62 0 114 19t97 52t86 75t79 88q18 22 46 61t54 86t45 95t19 88h-628q-14 0 -21 8t-10 18t-3 22v18q0 4 1 16t1 16 q22 4 68 10t105 12t124 14t124 14t105 11t68 7q20 2 38 2q74 0 116 -33q52 -41 72 -116q17 -63 17 -142q0 -16 -1 -33q-4 -100 -16 -206t-23 -210q-7 -67 -7 -126q0 -32 2 -62q-10 -28 -27 -32t-37 -4q-32 0 -50 22t-18 80q2 18 12 65t19 106t14 118q2 20 2 37q0 36 -7 64 q-74 -82 -140 -153t-137 -124t-154 -83t-189 -30q-128 0 -229 56t-172 148t-108 207t-37 235z" />
<glyph unicode="H" horiz-adv-x="1170" d="M20 1269v17q0 40 10 67t58 27q4 0 16 -2t16 -2q18 -66 24 -139t7 -147t1 -150t6 -148h742q0 76 -9 151t-19 150t-19 150t-9 151h106q10 0 22 -54t26 -143t29 -205t28 -238t24 -243t18 -220t9 -169q1 -23 1 -41q0 -36 -3 -49q-16 -34 -50 -34q-16 0 -31 7t-17 27l-76 630 h-762q6 -82 14 -174t15 -174t13 -144t8 -82q0 -2 1 -16t1 -20q0 -36 -21 -51t-55 -15q-4 0 -16 1t-12 3q-22 92 -48 392t-46 830v12t-1 22t-1 23z" />
<glyph unicode="I" horiz-adv-x="346" d="M70 1378q27 35 50 35q6 0 11 -2q27 -11 49 -63t39 -137t30 -185t23 -208t17 -207t11 -182t8 -133v-52t-1 -80t-1 -80v-52q-10 -28 -27 -32t-37 -4q-22 0 -40 4t-26 32q4 69 4 137q0 102 -9 204q-15 169 -38 336t-43 334t-20 335z" />
<glyph unicode="J" horiz-adv-x="992" d="M14 366q0 40 28 72q22 26 55 26q8 0 17 -2q-1 -7 -1 -15q0 -43 20 -90q23 -55 63 -101t90 -76t102 -30q140 0 221 58t121 153t46 214q2 45 2 90q0 75 -6 152q-10 123 -26 238t-21 201q-1 24 -1 45q0 53 9 86q10 33 40 33q11 0 25 -4q20 0 27 -20t17 -42q20 -82 39 -183 t32 -209t16 -219q1 -20 1 -39q0 -90 -12 -176q-14 -104 -49 -194t-96 -158t-154 -107t-223 -39q-70 0 -138 23t-122 67t-88 106t-34 140z" />
<glyph unicode="K" horiz-adv-x="1470" d="M64 1338v36t1 55t1 55v36q0 20 12 25q8 3 17 3q6 0 12 -1q17 -3 33 -11t24 -16q8 -44 13 -118t9 -161t8 -180t9 -177t10 -151t11 -103q118 110 220 192t187 149t152 125t116 117t80 124t45 149q4 2 23 2h27q6 0 20 1t28 -2t24 -10t10 -23q-2 -46 -24 -88t-53 -80t-67 -75 t-65 -72t-46 -72q-13 -27 -13 -55q0 -10 2 -20q96 -230 233 -445t301 -397q0 -2 -1 -4t-1 -6q-2 -4 -2 -6q-4 -8 -14 -19l-20 -22t-20 -19t-12 -8q-4 -1 -9 -1q-30 0 -74 47q-51 54 -110 141t-121 193t-117 200t-98 162t-65 82l-496 -428l-4 -41t-9 -99t-11 -120t-8 -104 q-8 -36 -22 -62t-32 -36q-11 -6 -22 -6q-8 0 -17 3q-21 7 -41 35q3 94 3 185q0 76 -2 150q-5 163 -13 324t-15 321t-7 326z" />
<glyph unicode="L" horiz-adv-x="1256" d="M64 1538q0 22 14 36t36 14q34 0 56 -38t36 -85t19 -90t7 -55q2 -24 8 -75t11 -103t9 -95t4 -55v-96t-2 -145t-3 -170t-3 -169t-3 -144t-1 -94q108 0 214 10t211 21t211 21t212 10q22 0 46 1t45 -5t38 -21t27 -45q2 -12 -11 -38t-23 -30q-40 2 -79 2q-91 0 -180 -10 q-127 -14 -252 -35t-250 -39t-251 -18q-52 0 -66 20t-14 72q0 162 17 319t17 319q0 104 -16 206t-34 203t-34 201t-16 200z" />
<glyph unicode="M" horiz-adv-x="1832" d="M50 1486q-2 22 16 29t32 7q34 0 50 -28t26 -66t18 -77t24 -63q48 -44 109 -113t128 -148t136 -162t137 -156t131 -130t117 -83q74 22 125 87t89 150t66 178t55 170t56 128t71 51q22 0 40 -5t28 -33q54 -120 99 -260t81 -285t65 -285t51 -258q0 -2 1 -9t1 -11 q0 -16 -12 -29t-28 -23t-33 -18t-29 -12l-264 960q-34 -18 -61 -72t-53 -124t-55 -147t-69 -142t-94 -107t-130 -42q-8 0 -33 2t-33 2q-90 84 -170 172t-160 177t-160 176t-170 169v-26t-1 -39t-1 -40v-25q0 -194 18 -381t18 -379v-27t-1 -40t-1 -40v-27t-12 -20t-20 -12 q-34 0 -52 17t-28 43t-14 55t-6 51z" />
<glyph unicode="N" horiz-adv-x="1370" d="M32 1354v5q0 10 6 16q8 7 20 10t23 4t17 1q44 0 69 -16t65 -54q104 -98 212 -215t226 -228t247 -205t273 -144v27t1 40t1 40v27q0 82 -16 163t-36 160t-36 159t-16 162q0 40 13 62t55 22q30 0 54 -49t43 -127t33 -173t23 -187t13 -170t4 -122v-27t-1 -40t-2 -40t-3 -25 t-10 -17t-18 -22t-20 -19t-16 -10q-2 0 -15 4t-29 10l-32 12t-24 10q-30 14 -88 49t-167 117t-280 224t-423 370q0 -6 -1 -19t-1 -17q0 -124 22 -246t47 -243t47 -244t22 -247v-44t-6 -41t-20 -34t-44 -23l-32 32z" />
<glyph unicode="O" d="M30 646q0 76 10 173t39 190t81 169t136 110q192 -8 330 -46t227 -122t131 -220t42 -338q0 -118 -35 -220t-101 -179t-162 -121t-218 -44q-130 0 -221 59t-148 152t-84 209t-27 228zM162 648q0 -96 19 -189t64 -166t118 -117t181 -44q56 0 112 13t103 42t82 72t49 103 q0 12 1 41t2 60t1 59v40q0 82 -15 186t-55 195t-111 153t-185 62q-16 0 -51 -4t-74 -12t-77 -21t-62 -31q-32 -74 -52 -128t-31 -102t-15 -98t-4 -114z" />
<glyph unicode="P" horiz-adv-x="1040" d="M48 1138q0 78 59 132t142 88t170 50t143 16q70 0 150 -20t147 -61t111 -102t44 -145q0 -134 -65 -234t-164 -174t-217 -128t-222 -98v-16q0 -90 17 -177t17 -175q0 -32 -10 -57t-56 -37q-4 -1 -8 -1q-14 0 -32 10q-24 13 -26 23l-134 1024q-24 18 -45 36t-21 46z M246 1112q0 -54 9 -121t21 -132t23 -118t15 -79q10 -24 20 -30t26 -6q80 0 171 39t169 103t129 145t51 165q0 68 -28 110t-73 65t-100 31t-109 8q-42 0 -98 -7t-106 -27t-85 -55t-35 -91z" />
<glyph unicode="Q" horiz-adv-x="1552" d="M48 678q0 74 18 158t53 167t85 159t114 134t141 93t165 35q46 0 76 -23q18 -14 18 -40q0 -18 -8 -41q120 -6 223 -33t179 -85t119 -150t43 -226q0 -54 -16 -107t-35 -104t-35 -101t-16 -102q0 -34 25 -57t61 -40t80 -32t80 -33t61 -41t25 -59q0 -20 -9 -31t-22 -16 t-28 -6t-29 -1q-10 0 -27 1t-19 1l-296 166q-58 -46 -121 -93t-132 -86t-142 -63t-151 -24q-136 0 -227 63t-148 162t-81 219t-24 236zM178 656q0 -106 15 -201t57 -169t116 -117t192 -43q30 0 73 6t89 19t92 31t82 43t59 56t23 67q0 2 -1 3t-1 5v6l-364 332q-12 12 -3 24 t24 23t30 16t15 3q138 -100 214 -154t112 -80t44 -30t10 -4q4 0 11 1t7 3q20 20 38 59t32 81t21 80t7 58q0 70 -25 144t-70 134t-109 99t-142 39q-54 0 -100 -14t-90 -32t-89 -32t-93 -14q0 4 -6 12t-2 12q4 8 18 27t30 40t30 40t20 27q-2 0 -8 1t-8 1q-60 0 -110 -33 t-89 -86t-67 -120t-47 -134t-28 -127t-9 -102z" />
<glyph unicode="R" horiz-adv-x="1438" d="M50 1158v16v16q18 96 78 142t140 64t166 20t158 12q68 0 152 -8t158 -35t125 -79t51 -142q0 -62 -12 -107t-35 -86t-54 -83t-69 -96q22 -66 65 -125t95 -115t106 -112t98 -113t72 -117t28 -128q0 -34 -26 -60t-58 -26q-4 0 -9 2t-7 2q-82 174 -198 326t-232 300 q-10 8 -29 8q-15 0 -36 -5q-47 -11 -108 -37t-127 -60t-122 -64t-96 -49t-46 -15q0 -78 19 -155t19 -153q0 -46 -30 -75q-26 -25 -60 -25h-10q-12 48 -26 127t-28 177t-28 211l-28 226t-28 221t-28 200zM180 1126q0 -6 1 -19t1 -17q2 -28 11 -98t20 -149t21 -150t14 -99 q23 -7 51 -7q36 0 79 12q76 21 158 66t163 108t144 130t99 134q32 60 32 110v11q-10 48 -60 74t-111 40t-120 17t-89 3q-36 0 -105 -5t-138 -22t-120 -50t-51 -89z" />
<glyph unicode="S" horiz-adv-x="1056" d="M30 216q0 30 21 64t47 50q42 -22 55 -56t27 -67t44 -57t102 -24q34 0 87 9t113 26t120 43t109 60t79 75t30 91q0 42 -54 53t-136 14t-177 8t-177 37t-136 102t-54 202q0 124 40 215t111 150t166 87t207 28q26 0 76 -2t101 -14t89 -36t38 -68q0 -30 -20 -40t-46 -10 q-36 0 -70 6l-68 12t-70 12t-76 6q-186 0 -266 -87t-80 -281q0 -72 38 -116t99 -69t136 -35t149 -12t138 -2t102 -4q28 -10 42 -27t20 -37t7 -43t1 -45q0 -64 -32 -122t-84 -106t-118 -87t-136 -66t-136 -42t-116 -15q-52 0 -111 8t-111 32t-86 67t-34 113z" />
<glyph unicode="T" horiz-adv-x="1670" d="M12 1054q0 22 5 41t33 27q111 -16 218 -16q76 0 151 8q179 20 355 57t356 74t374 43q6 0 20 1t29 2t29 2t20 1v-104q-24 -4 -73 -11t-111 -17t-130 -21t-130 -21t-111 -18t-73 -12q-38 -6 -59 -9t-30 -9t-10 -18t-1 -38v-58q2 -22 9 -88t18 -154t22 -188t22 -188t19 -154 t10 -88v-18q0 -32 -25 -57t-59 -25q-28 0 -48 63t-34 161t-23 217t-15 233t-12 209t-14 143h-34q-128 0 -253 -17t-251 -17q-18 0 -50 -2q-13 -1 -26 -1l-38 2q-32 3 -56 17t-24 48z" />
<glyph unicode="U" horiz-adv-x="1158" d="M48 1162q0 34 10 51t56 43q46 -18 68 -75t29 -139q6 -72 6 -157v-25q0 -50 -0.5 -100t0.5 -101q1 -101 9 -196t33 -168t72 -118t129 -45q80 0 147 55t122 142t96 197t70 221t43 210t14 167v30q0 2 -6 12t-12 22t-11 21t-5 13q0 12 9 30t24 35t33 27q13 7 25 7q5 0 9 -1 q30 -8 44 -24t20 -36t6 -42v-42q0 -88 -18 -209t-54 -252t-89 -260t-123 -231t-156 -165t-188 -63q-100 0 -164 41t-101 108t-55 150t-26 167q-2 16 -7 67t-11 119t-14 144t-14 144t-11 119t-7 67q0 4 -1 19t-1 21z" />
<glyph unicode="V" horiz-adv-x="1138" d="M9 1226q5 14 18 21t28 10t25 3q40 0 60 -15t42 -55l562 -992q58 96 98 206t67 226t42 233t23 227q4 2 24 4t26 2q14 0 30 -1t30 -8t21 -22q4 -8 4 -19q0 -10 -3 -22l-164 -728q-6 -22 -27 -68t-50 -94t-61 -88t-60 -46q-2 -1 -6 -1q-10 0 -29 10q-25 13 -31 23l-662 1158 q-8 16 -8 27q0 5 1 9z" />
<glyph unicode="W" horiz-adv-x="1982" d="M48 1224q0 68 66 68q22 0 40 -4t28 -32q6 -134 20 -275t41 -281t68 -276t101 -258q54 44 103 127t92 183t83 203t78 188t77 139t79 54q34 0 50 -3t34 -33l394 -662q10 -12 23 -29t28 -32t32 -26t35 -13q50 0 83 71t55 178t39 233t35 237t41 188t59 87q26 6 41 0t21 -19 t7 -30t1 -29q0 -10 -1 -31t-3 -25l-164 -760l-160 -332q-114 52 -208 150t-171 212t-140 230t-115 204q-14 -10 -29 -29t-28 -38t-24 -37t-17 -28q-12 -22 -35 -68t-53 -105t-62 -124t-61 -124t-53 -106t-34 -69q-12 -16 -28 -33t-36 -32t-42 -25t-42 -10h-10q-4 0 -8 2 q-52 40 -83 80t-51 87t-34 103t-28 128q-4 12 -12 63t-21 123t-27 159t-28 170t-26 157t-18 120q0 2 -1 15t-1 19z" />
<glyph unicode="X" horiz-adv-x="1338" d="M26 140q44 0 76 12t59 33t51 49t52 62q22 26 53 63t64 77t65 79t58 71t42 53t16 23v32l-396 626q0 4 -1 9t-1 9q0 22 15 36t37 14t40 -9t40 -25q20 -40 58 -108t84 -145t95 -151t93 -124q2 -2 9 -2h9q46 0 93 51t95 127t96 168t97 172t98 139t99 71h2q7 0 29 -11 q25 -13 35 -21v-6q0 -4 1 -5t1 -3q0 -26 -10 -46t-24 -38l-528 -728q-14 -18 13 -53t75 -78t108 -91t112 -93t88 -84t36 -63q0 -36 -19 -53t-53 -17q-8 0 -19 1t-13 3l-396 396q-44 -38 -87 -94t-88 -119t-91 -126t-95 -113t-99 -82t-104 -32q-24 0 -38 15t-21 37t-9 47 t-2 45z" />
<glyph unicode="Y" horiz-adv-x="1240" d="M26 1408v8q0 2 2 6q6 6 16 12t21 11t19 8t10 1l678 -592q18 10 34 34t30 50t22 48t12 30q36 66 63 130t51 121t50 105t62 86q32 0 48 -17t20 -42q3 -17 3 -36q0 -9 -1 -19q-2 -30 -2 -54l-302 -544q0 -8 1 -62t2 -132t3 -167t3 -167t2 -132t1 -62q-6 -8 -30 -20t-36 -12 q-4 0 -16 12t-16 20l-68 666l-646 626q-16 16 -26 38t-10 46z" />
<glyph unicode="Z" horiz-adv-x="1504" d="M48 1402q0 16 7 34t27 18h826q18 0 26 -18t10 -40t1 -41l-1 -19q0 -144 -56 -286t-137 -279t-173 -265t-166 -242q-16 -26 -26 -41t-10 -41v-10q0 -4 2 -6q70 -30 127 -33t127 -3q102 0 201 21t197 47t196 47t198 21q14 0 23 -9t14 -22t7 -27t2 -26q0 -18 -6 -28t-28 -20 q-106 -24 -214 -48t-218 -44t-222 -33t-222 -13q-40 0 -105 5t-127 21t-107 46t-45 82q0 6 2 25t4 23q14 16 43 52t65 81t76 96t75 97t63 83t40 55q42 56 89 137t87 168t66 171t26 150q0 4 -2 16t-2 16q-6 4 -25 9t-40 11t-40 10t-27 4q-22 2 -68 2t-105 1q-30 0 -60.5 0.5 t-62.5 -0.5q-64 -1 -123 -1t-106 -1t-69 -1q-20 10 -27 21t-7 27z" />
<glyph unicode="[" horiz-adv-x="710" d="M58 270v93v61v86v109t1 115t1 105t1 78t1 35q0 18 2 67t7 114t12 138t18 138t25 114t32 69l430 66q8 2 23 -5t30 -18t27 -23t18 -20q-28 -44 -90 -65t-130 -29t-127 -7t-81 1q-26 -6 -42 -52t-23 -114t-8 -148t0 -153t4 -130t3 -81q0 -206 11 -416t25 -402q8 -18 38 -24 t69 -6t83 5t82 11t63 10t27 4q24 -18 46 -36t22 -48q0 -44 -39 -63t-93 -23t-111 -1t-91 3q-28 0 -69 -1t-80 3t-71 19t-42 47q0 20 -1 61t-1 94t-1 110t-1 109z" />
<glyph unicode="\" horiz-adv-x="926" d="M34 1280h108q14 -28 51 -97t79 -146t81 -145t57 -94q8 -14 39 -56t72 -97t88 -118t88 -119t73 -98t42 -54q10 -16 27 -38t33 -48t28 -50t12 -42q0 -28 -22 -40t-46 -12q-4 0 -41 43t-95 115t-131 167t-147 199t-146 212t-127 206t-89 179t-34 133z" />
<glyph unicode="]" horiz-adv-x="826" d="M86 1476v130q76 -10 148 -10t136 -3t118 -14t94 -41t66 -84t34 -144q2 -20 2 -86v-160t-1 -209t-1 -234t-1 -233t-1 -208t1 -159t3 -85v-20q0 -20 -25 -40t-65 -36t-87 -29t-91 -23t-80 -15t-50 -5q-66 0 -66 68q0 38 22 59t56 32t72 17t72 16t56 28t22 54q0 10 -1 32 t-1 26q-2 34 0 128t7 216t10 260t9 261t6 216t-2 129q0 52 -28 85t-72 51t-97 24t-105 7t-95 -1t-65 0z" />
<glyph unicode="^" horiz-adv-x="662" d="M-2 1528q0 8 1 20t3 14l384 328l318 -440q0 -2 1 -8t1 -10q0 -22 -10 -35t-25 -19t-34 -7t-35 -1q-24 0 -48 22t-47 54t-46 69t-43 67t-36 47t-28 9l-274 -188q-2 0 -8 -1t-10 -1q-38 0 -51 25t-13 55z" />
<glyph unicode="_" horiz-adv-x="890" d="M60 64q0 36 25 53t61 17h18q26 -2 77 -5t117 -7t138 -7t137 -7t117 -6t76 -4v-66q0 -2 -26 -7t-63 -10t-77 -9t-66 -6q-4 0 -31 -1t-62 -1t-71 -1t-56 -1q-4 0 -54 -4t-108 -1t-105 19t-47 54z" />
<glyph unicode="`" horiz-adv-x="528" d="M54 1856l66 64q56 -48 95 -88t71 -81t62 -88t72 -111q0 -4 1 -16t1 -18q0 -24 -11 -45t-39 -21q-32 0 -48 21t-36 45q-38 48 -79 106t-76 109t-57 86t-22 37z" />
<glyph unicode="a" horiz-adv-x="1272" d="M48 294q0 100 32 201t91 182t145 132t194 51q90 0 173 -26t159 -74l-8 276q0 38 -16 79t-43 75t-63 57t-78 23q-58 0 -112 -24t-105 -59t-96 -76t-81 -75h-92q0 80 53 147t131 116t166 76t156 27q82 0 144 -40t105 -102t67 -139t30 -151q8 -90 8 -188t6 -196t25 -189 t67 -165q10 -6 35 -11t49 -15t40 -27q12 -12 12 -31q0 -7 -2 -14q-14 -52 -46 -61t-68 -9q-56 0 -98 32t-74 70t-55 70t-41 32t-60 -37t-105 -82t-143 -82t-174 -37q-62 0 -121 15t-105 46t-74 81t-28 122zM210 334q0 -96 35 -133t131 -37q68 0 146 30t142 80t107 117 t43 141q0 38 -32 73t-78 63t-95 45t-81 17q-74 0 -133 -38t-100 -96t-63 -128t-22 -134z" />
<glyph unicode="b" horiz-adv-x="1010" d="M82 32v330l6 1086q0 2 -1 8t-1 10q0 22 15 36t37 14q16 0 42 -15t30 -35l-2 -644q74 112 204 169t270 57q52 0 94 -27t75 -72t57 -101t40 -115t23 -115t7 -100q0 -144 -68 -244t-175 -162t-239 -89t-260 -27h-32t-39 1t-34 2t-17 1zM200 110q114 0 230 14t208 57t150 122 t58 207q0 56 -7 127t-29 134t-64 106t-112 43q-86 0 -152 -45t-114 -118t-80 -163t-52 -180t-28 -171t-8 -133z" />
<glyph unicode="c" horiz-adv-x="1272" d="M46 646q0 134 37 257t110 216t182 149t251 56q30 0 97 -8t135 -26t120 -48t52 -74q0 -26 -11 -47t-41 -21q-32 0 -81 14t-101 32t-102 32t-86 14q-12 1 -24 1q-58 0 -114 -32q-68 -39 -123 -109t-95 -164t-55 -194q-8 -54 -8 -106q0 -46 6 -91q13 -97 62 -176t139 -131 t230 -60q130 0 228 47t167 103t110 103t57 47q14 0 33 -7t19 -25q0 -70 -32 -127t-84 -102t-118 -77t-134 -53t-132 -31t-112 -10q-142 0 -251 49t-182 136t-111 206t-38 257z" />
<glyph unicode="d" horiz-adv-x="1256" d="M16 546q0 132 62 239t159 182t217 116t238 41q94 0 183 -14t181 -14v504h28t48 -3t48 -14t26 -31q-6 -38 -10 -123t-6 -197t-5 -243t-5 -262t-5 -254t-8 -219t-12 -156t-17 -66q0 -6 -13 -18t-19 -14q-10 -4 -23 -5t-27 -3l-32 -4v244q-68 -50 -132 -82t-128 -51 t-131 -27t-141 -8q-102 0 -190 36t-151 101t-99 153t-36 192zM144 528q0 -98 31 -162t85 -103t128 -55t160 -16q56 0 135 12t151 43t123 83t51 132v464q-14 4 -26 12q-10 4 -22 10t-18 10q-24 10 -60 22t-74 22t-73 16t-57 6q-98 0 -194 -40t-171 -109t-122 -159t-47 -188z " />
<glyph unicode="e" d="M50 850q0 92 24 191t77 179t135 132t198 52q86 0 181 -41t172 -108t123 -153q35 -66 35 -135q0 -21 -3 -43q-6 -38 -58 -58t-129 -31t-168 -16t-176 -9t-152 -11t-97 -23q-2 -22 -2 -47q0 -37 5 -79q9 -70 33 -142t62 -141t89 -124t114 -89t137 -38q60 0 102 34t76 74 t68 74t78 34q34 0 58 -9t24 -57q0 -54 -44 -103t-107 -86t-133 -59t-122 -22q-104 0 -188 42t-151 112t-116 160t-81 185t-48 187t-16 168zM212 924h22t34 -1t34 -1h22q37 4 76 4q26 0 53 -2q67 -4 135 -4t134 12t128 52q0 54 -38 107t-95 96t-123 69t-122 26 q-66 0 -114 -39t-79 -94t-47 -117t-20 -108z" />
<glyph unicode="f" horiz-adv-x="1370" d="M34 488q0 28 31 50t79 41t106 34t114 30t101 28t67 29q4 80 11 168t23 173t45 162t77 135t119 92t171 34q46 0 101 -6t103 -27t81 -61t33 -106q0 -28 -12 -48t-42 -20q-40 0 -68 21t-55 47t-58 47t-75 21q-94 0 -151 -46t-88 -116t-42 -155t-11 -165v-16t1 -26t2 -25 t1 -15q52 8 117 20t135 23t142 18t138 7q42 0 70 -9t28 -59q0 -4 -2 -16t-2 -16q-78 -18 -159 -26t-162 -17t-158 -29t-147 -62q-4 -31 -4 -71q0 -20 1 -43q3 -68 7 -146t8 -159q2 -41 2 -78.5t-2 -72.5q-10 -28 -27 -32t-39 -4q-16 0 -39 4t-27 32l-46 504q-23 4 -46 4 q-31 0 -61 -8q-51 -14 -100 -36t-100 -42t-107 -20q-12 0 -27 1t-28 6t-21 16t-8 31z" />
<glyph unicode="g" horiz-adv-x="974" d="M66 906q6 106 39 207t96 179t156 124q82 41 190 41q14 0 29 -1q60 -12 119 -22t108 -45t84 -109t46 -213q4 -57 4 -126q0 -101 -9 -230q-16 -217 -70 -539q-10 -66 -56 -120t-109 -91t-131 -57t-122 -20q-48 0 -111 13t-119 40t-95 69t-39 100q0 22 7 45t35 23 q34 0 70 -28t74 -61t80 -61t88 -28q22 0 73 19t104 49t95 65t46 69q8 66 13 118t8 98t3 94v108q-112 -140 -209 -203t-177 -66h-10q-74 0 -133 44q-63 47 -104 126t-60 181q-14 78 -14 157q0 26 1 51zM182 898q0 -54 10 -125t33 -134t61 -107t94 -44q104 0 187 59t140 147 t87 193t30 197q5 19 5 38q0 32 -15 62q-24 48 -65 83t-88 54q-36 14 -62 14q-8 0 -15 -1q-96 0 -171 -34t-126 -93t-78 -139t-27 -170z" />
<glyph unicode="h" horiz-adv-x="1138" d="M64 1630q6 0 20 -1t30 -3t30 -4t20 -4q12 -2 32 -15t20 -17v-892q26 42 66 101t89 122t106 124t117 109t123 78t125 30q50 0 84 -28t55 -68t31 -86t12 -84q0 -26 1 -81t1 -123v-144v-144t-1 -123t-1 -81q6 -40 19 -64t26 -45t22 -45t9 -62q-66 0 -106 21t-62 59t-31 90 t-11 112q0 26 -1 77t-1 117v138v137t1 117t1 76q-41 52 -92 52q-14 0 -28 -4q-68 -18 -141 -93t-143 -192t-126 -249t-91 -265t-37 -241q-10 -20 -22 -27t-30 -7q-28 0 -47 21t-35 47q2 89 2 177q0 110 -3 218q-5 195 -12 389l-14 388t-7 392z" />
<glyph unicode="i" horiz-adv-x="348" d="M38 1355q8 27 64 33q14 -4 24 -4t14 -6t6 -23t2 -53q-20 -34 -51 -27t-49 30q-12 16 -12 34q0 8 2 16zM84 1056h114l134 -990q0 -2 -8 -11t-19 -20t-22 -21t-19 -14q-2 -2 -7 -3t-9 -1q-30 12 -53 80t-40 168t-28 219t-19 232t-13 210t-11 151z" />
<glyph unicode="j" horiz-adv-x="694" d="M0 330q0 8 8 19t18 22t22 19t18 8q34 -26 60 -72t54 -90t63 -77t87 -33q64 0 98 39t50 94t19 113t3 94q0 66 -12 128t-25 123t-25 122t-12 125v35t6 30t20 20t44 7q8 0 20 -12t12 -20q8 -26 23 -91t31 -139t28 -140t16 -92q0 -2 1 -15t2 -30t1 -35v-30q0 -80 -15 -161 t-53 -146t-103 -106t-163 -41q-46 0 -97 36t-96 88t-74 109t-29 99zM426 1338q0 14 17 39t49 25q6 1 12 1q26 0 43 -21q21 -26 24 -57v-9q0 -26 -14 -46q-14 -19 -42 -19q-7 0 -15 1q-46 0 -60 23t-14 63z" />
<glyph unicode="k" horiz-adv-x="994" d="M82 32v1288q0 22 17 29t33 7q22 0 38 -44t26 -112t14 -149t6 -154q1 -49 1 -90v-39q-1 -56 -1 -74q114 10 194 60t137 123t93 161t64 178q36 -4 54 -14t26 -22t8 -23t-2 -15q-6 -8 -22 -43t-39 -83t-50 -102t-54 -102t-51 -82t-42 -42q20 -32 60 -79t87 -101t97 -111 t90 -107t66 -90t26 -60q0 -32 -26 -58t-60 -26q-42 44 -70 73t-52 55t-48 57t-58 82t-84 127t-124 194l-226 -74q0 -16 -2 -52t-4 -84t-5 -100t-6 -100t-6 -85t-5 -51q-4 -22 -29 -49q-18 -20 -48 -20q-11 0 -23 3z" />
<glyph unicode="l" horiz-adv-x="330" d="M32 1454q12 18 28 35t33 24q10 4 21 4q8 0 15 -2q19 -5 37 -29q16 -192 31 -358t30 -331t31 -342t38 -389q-4 -34 -13 -51t-33 -17t-45 10t-39 24z" />
<glyph unicode="m" horiz-adv-x="1768" d="M48 1372q0 32 21 42t45 10q4 0 17 -1t17 -1q20 -48 31 -103t20 -108t19 -101t30 -86q24 38 63 98t87 114t102 90q44 29 90 29q10 0 20 -1q70 -10 118 -57t79 -114t49 -147t28 -158t15 -145t9 -107q16 40 40 103t55 133t71 141t88 128t104 92t120 35q74 0 126 -75t87 -192 t56 -259t33 -277t15 -246t3 -165q-52 0 -93 16t-45 74l-64 756q-2 20 -14 54t-31 67t-43 60t-48 33q-10 2 -20 2q-34 0 -69 -27q-45 -35 -86 -97t-79 -140t-67 -154t-48 -137t-25 -89q-6 -22 -14 -81t-16 -126t-15 -126t-9 -81q-10 -22 -28 -20t-34 2t-31 7t-19 29l-64 892 q-2 20 -14 63t-34 85t-51 74t-63 32q-48 0 -92 -36t-81 -93t-66 -125t-50 -133t-33 -119t-12 -80q-2 -20 -4 -66t-4 -105t-4 -123t-4 -123t-4 -105t-2 -66q-6 -12 -18 -16t-26 -4t-29 2t-27 2q0 180 -2 349t-9 334t-22 330t-45 337z" />
<glyph unicode="n" horiz-adv-x="1190" d="M50 1242q0 20 13 34t35 14q36 0 59 -49t35 -109t17 -113t7 -61q34 68 83 129t109 107t130 72t148 26q70 -2 139 -27t131 -82t110 -151t75 -234t28 -332v-12q0 -188 -31 -432q-2 -6 -22 -16t-45 -15q-16 -3 -30 -3q-9 0 -17 1q-22 3 -26 23l10 748q0 58 -22 127t-62 128 t-99 99t-131 40q-108 0 -192 -54t-141 -136t-86 -182t-29 -192q0 -122 18 -242t18 -242q0 -38 -26 -74t-70 -36q-20 0 -37 44t-31 117t-24 170t-17 203t-13 213t-9 203t-4 174t-1 122z" />
<glyph unicode="o" horiz-adv-x="890" d="M46 630q0 36 3 103t11 148t25 165t45 153t68 113t98 44q20 0 32 -11t18 -26t6 -32t-6 -31q30 4 59 4q63 0 116 -21q77 -31 133 -91t94 -141t62 -168t34 -172t10 -153q0 -94 -20 -186t-68 -165t-127 -119t-195 -46q-82 0 -143 30t-106 81t-73 117t-45 136t-24 139t-7 129z M182 654v-31q0 -84 9 -167q11 -98 40 -173t81 -117q42 -34 104 -34q15 0 30 2q66 0 116 29t83 75t49 104t16 118q0 88 -11 199t-47 209t-105 165t-185 67q-6 0 -23 -1t-35 -3t-34 -3t-22 -3q0 17 -3 17q-2 0 -7 -12q-10 -27 -21 -92t-22 -157t-13 -192z" />
<glyph unicode="p" horiz-adv-x="1074" d="M22 1298q-1 5 -1 10q0 17 11 36q14 24 35 44t43 32q19 10 30 10h4l20 -226q-4 20 30 52t93 65t136 62t158 41q46 7 92 7q34 0 68 -4q79 -9 142 -52t102 -125t41 -216q0 -158 -69 -275t-178 -198t-245 -130t-270 -69l8 -340l-148 -26zM198 1024l40 -506q102 0 220 43 t218 115t167 165t67 195q-10 82 -57 129t-114 65q-45 12 -95 12q-25 0 -52 -3q-80 -9 -156 -38t-140 -75t-98 -102z" />
<glyph unicode="q" horiz-adv-x="1220" d="M74 710q0 122 40 246t115 224t182 163t243 63q46 0 114 -13t130 -40t106 -69t44 -98q-60 -136 -105 -285t-71 -291t-36 -264q-5 -61 -5 -111.5t5 -90.5q10 -80 38 -109q11 -11 24 -11q22 0 51 29q47 47 115 178t156 371q42 0 55 -8t13 -48q-2 -158 -42 -282t-99 -209 t-130 -129t-136 -45h-3q-63 0 -112 45q-50 46 -69 141q-9 45 -9 102q0 63 11 140q21 147 101 349q-60 -114 -137 -201t-158 -136t-160 -56q-11 -1 -21 -1q-66 0 -119 38q-61 44 -97 144q-34 95 -34 247v17zM196 732q0 -140 22 -215t59 -102q23 -17 51 -17q17 0 35 6 q49 16 104 58t112 105t109 131l148 444q2 0 3 13t1 17q0 36 -22 56t-53 30t-66 12t-61 2q-100 0 -181 -54t-139 -135t-90 -176t-32 -175z" />
<glyph unicode="r" horiz-adv-x="1106" d="M32 1354q4 34 33 67t67 33q6 0 19 -13t15 -19l130 -662q38 92 102 198t148 194t184 147t212 59q38 0 62 -4t39 -17t21 -38t6 -67q-164 0 -280 -54t-194 -146t-123 -213t-69 -254t-32 -271t-10 -262q-16 -34 -48 -34q-34 0 -50 34q-6 40 -18 126t-28 194t-34 226t-35 226 t-31 193t-20 125q-2 14 -11 47t-19 70t-20 70t-16 45z" />
<glyph unicode="s" horiz-adv-x="992" d="M30 860q0 90 39 169t104 136t149 90t174 33q56 0 110 -9t97 -31t70 -63t27 -103q-40 0 -75 12t-70 26t-70 26t-73 12q-27 4 -52 4q-50 0 -95 -16q-67 -24 -114 -69t-72 -105q-22 -54 -22 -110v-13q3 -63 36 -122t103 -101q56 4 125 12t139 11q21 1 42 1q48 0 94 -5 q66 -7 118 -32t83 -74t31 -129q0 -76 -33 -149t-88 -131t-128 -94t-151 -36q-110 0 -166 46t-56 154q32 0 62 -6t60 -13t61 -13t67 -6q44 0 87 20t77 53t55 75t21 88q0 36 -13 55t-55 43q-126 -8 -251 -10h-15q-116 0 -209 29q-99 31 -161 111t-62 234z" />
<glyph unicode="t" horiz-adv-x="1034" d="M36 746q0 14 7 31t29 17l326 -2q0 68 -2 162t-4 192t-4 191t-2 163h23t45 -4t44 -13t24 -29l52 -628q30 -4 76 -6q31 -1 62 -1h32q48 1 92 3t74 6q2 0 8 1t10 1q32 0 59 -28t27 -60q0 -4 -2 -9t-4 -5l-402 -34v-628q0 -2 -7 -11t-18 -20t-22 -21t-17 -14q-4 -2 -8 -2h-10 q-18 0 -29 7t-21 27q-6 44 -9 133t-8 186t-14 182t-25 123l-280 8q-10 0 -28 7t-34 19t-28 26t-12 30z" />
<glyph unicode="u" d="M84 1166v42t1 65t2 66t1 43q0 22 13 27q6 2 13.5 2.5t16.5 -2.5q17 -5 33 -13t24 -14q-8 -56 -11 -168q-1 -37 -1 -77q0 -80 4 -171q6 -136 23 -280t52 -261t88 -192t133 -75q66 0 112 50t76 128t47 174t26 188t11 169t2 119q0 28 -7 57t-15 57t-12 57t0 59q10 18 26 34 t34 23t37 3t35 -28l208 -1114q4 -14 4 -25q0 -7 -2 -12q-4 -13 -14 -21t-24 -10t-26 -2q-22 0 -42 4t-28 30l-98 332q-18 -62 -43 -137t-65 -141t-98 -110t-140 -44q-100 0 -168 67t-112 174t-68 240t-34 263t-12 243t-2 181z" />
<glyph unicode="v" horiz-adv-x="1206" d="M16 1122q6 8 18 20t27 23t29 18t24 7q8 0 22 -13t14 -19q14 -32 44 -97t69 -147t82 -172t82 -171t70 -146t47 -95q6 -10 17 -28t25 -37t29 -38t29 -29q4 8 14 26t20 39t19 40t13 27q12 36 39 111t60 169t69 198t68 199t57 170l37 111q4 2 17 3t17 1q36 0 57 -15t43 -55 q-16 -40 -47 -123t-70 -187t-82 -219t-82 -219t-70 -186t-47 -122q-8 -22 -24 -51t-38 -55t-49 -43t-55 -17q-2 0 -14 12t-18 20t-16 23t-21 31t-19 30t-10 18q-20 36 -59 113t-88 174t-103 205t-103 205t-87 175t-56 116z" />
<glyph unicode="w" horiz-adv-x="1486" d="M30 1058q0 46 27 58t67 12q10 0 26 -2t16 -4l230 -890q40 152 53 276t20 233t17 210t42 207q10 26 27 30t39 4q24 0 39 -4t27 -30l430 -926q38 20 63 77t40 138t23 177t14 194t13 189t20 162t35 114t56 43q24 0 46 -12t22 -40q0 -4 -1 -10t-1 -8l-198 -1090 q-4 -24 -10 -48t-17 -44t-29 -32t-46 -12q-46 0 -76 25t-52 79l-366 756q-4 -22 -11 -71t-16 -111t-20 -130t-21 -130t-18 -111t-12 -73q-4 -28 -14 -72t-29 -87t-49 -74t-74 -31q-8 0 -33 12t-33 20q-30 148 -62 273t-67 241t-69 232t-66 246q0 2 -1 15t-1 19z" />
<glyph unicode="x" horiz-adv-x="958" d="M18 1374q0 32 28 57t52 25l398 -432q2 8 15 33t17 33q12 16 39 59t59 90t61 89t41 58q27 37 57 37q9 0 18 -4q39 -15 43 -91q-24 -50 -59 -102t-68 -104t-60 -104t-36 -101q-3 -18 -3 -37q0 -30 9 -60q15 -48 65 -92q12 -18 47 -58t74 -83t71 -83t40 -58q9 -31 9 -53 q0 -27 -14 -38q-12 -10 -28 -10t-35 11l-330 372q-62 -84 -108 -177t-82 -184t-65 -174t-55 -147q-24 -14 -49 -19q-12 -2 -23.5 -2.5t-21.5 2.5q-20 5 -31 24t-7 53q74 182 126 309t87 210t55 129l30 69t12 29t2 8z" />
<glyph unicode="y" horiz-adv-x="1008" d="M30 1306q0 32 27 57t57 25q16 0 32 -7t20 -27l98 -626q10 -52 52 -94t94 -42q80 0 133 40t85 104t48 144t21 161q3 51 3 98q0 29 -1 56q-3 73 -5 125q0 6 9 17t19 22t21 19t17 8q18 4 35 -6t30 -27t22 -35t11 -30q-5 -63 -5 -124.5t5 -120.5q10 -119 25 -236l30 -234 t15 -241q0 -68 -28 -139t-77 -128t-118 -94t-149 -37q-18 0 -39 2t-39 8t-30 20t-12 38q0 4 1 16t3 16q76 6 141 32t113 68t75 99t27 127q0 8 -1 56t-4 103t-10 99t-21 44q-46 -46 -86 -83t-80 -63t-84 -41t-98 -15q-70 0 -117 23t-78 63t-51 95t-34 119q-2 8 -9 42t-16 83 t-20 106t-21 113t-19 105t-15 79q0 2 -1 8t-1 10z" />
<glyph unicode="z" horiz-adv-x="1158" d="M50 98q158 226 265 386t175 267t104 170t51 96t17 43t2 14h-494q0 2 1 20t5 39t13 39t27 18h560q18 0 26 -14t11 -32t2 -35t-1 -21q0 -92 -40 -187t-99 -186t-129 -175t-129 -154t-99 -123t-40 -81t23 -40t55 -14q13 -1 26 -1q20 0 40 2q34 3 58 3q76 0 152 16t148 35 t138 35t124 16q68 0 68 -68q0 -40 -43 -68t-109 -47t-147 -29t-157 -16t-137 -7t-89 -1h-30t-36 1t-32 1h-16q-24 2 -64 7t-80 17t-73 30t-47 44z" />
<glyph unicode="{" horiz-adv-x="562" d="M16 924v68l264 164v6q0 2 1 4t1 4q0 44 -11 87t-25 88t-25 92t-11 99v36t1 54t2 54t3 36q14 24 43 68t65 88t77 76t79 32q28 0 31 -25t3 -41q0 -4 -1 -16t-1 -16q-40 -38 -76 -76t-63 -79t-44 -88t-17 -103q0 -76 27 -131t60 -100t61 -86t28 -87q0 -8 -3 -24t-5 -18 l-232 -134q-2 0 -3 -5t-1 -9q0 -24 16 -38t36 -27t36 -28t16 -37q0 -66 -16 -130t-34 -127t-34 -127t-16 -132q0 -84 17 -138t46 -87t64 -54t72 -40t71 -44t60 -67q-8 -30 -34 -33t-46 -3q-102 0 -170 54t-108 133t-57 171t-17 170q0 98 18 188t18 186v28z" />
<glyph unicode="|" horiz-adv-x="330" d="M32 1454q12 18 28 35t33 24t36 2t37 -29q16 -192 31 -358t30 -331t31 -342t38 -389q-4 -34 -13 -51t-33 -17t-45 10t-39 24z" />
<glyph unicode="}" horiz-adv-x="578" d="M16 2016v92q88 0 151 -53t104 -131t60 -166t19 -156q0 -50 -6 -96t-13 -91t-13 -91t-6 -94v-25t2 -17l198 -196q2 -2 3 -19t1 -25q0 -30 -11 -55t-25 -49t-25 -48t-11 -52q0 -40 11 -73t25 -67t25 -71t11 -83q0 -24 -4 -82t-15 -130t-29 -149t-44 -141t-62 -105t-82 -41 q-6 0 -20 4t-29 9t-29 10t-20 9q-2 0 -3 6t-1 8q0 10 20 37t44 57t46 56t26 34q42 88 54 187t12 195q0 98 -26 149t-58 83l-58 58t-26 74l25 18t54 42t48 49t7 37l-232 232v16q0 52 17 99t36 95t36 98t17 108q0 90 -7 143t-29 96t-62 88t-106 117z" />
<glyph unicode="~" horiz-adv-x="1056" d="M30 642q2 72 24 144t63 129t102 92t139 35q62 2 107 -20t84 -57t76 -78t83 -81q34 0 74 28t76 63t63 68t35 43q28 -22 49 -42t17 -60q-16 -16 -49 -55t-75 -78t-87 -69t-83 -30q-68 -6 -117 23t-91 70t-84 83t-92 64q-42 0 -69 -23t-45 -57t-31 -73t-28 -73t-36 -57 t-55 -23q-16 0 -28 7t-22 27z" />
<glyph unicode="&#xa1;" horiz-adv-x="378" d="M34 1127v49t6.5 47t22 35.5t46.5 13.5q23 0 44 -11t21 -38q0 -62 -41.5 -79t-98.5 -17zM105 885q13 0 27.5 6t28 12.5t26 10t22.5 -3.5q11 -32 28.5 -100t35.5 -152t35.5 -174.5t31 -168t20 -135.5t3.5 -76q0 -2 -8 -11t-18.5 -18l-21 -18t-16.5 -13q-13 -12 -23.5 -7 t-19.5 17t-14.5 27.5t-7.5 22.5q-4 27 -13.5 86t-22 132t-26 154.5t-26 155.5t-22 132.5t-15.5 85.5q0 4 -2 17.5t-2 17.5z" />
<glyph unicode="&#xa2;" horiz-adv-x="874" d="M14 480q0 2 1 8t1 8q58 132 132 272t166 256q-4 46 -11 103t-13 117t-10 121t-4 115q52 0 79 -48t39 -110t15 -121t5 -79q62 36 130 57t138 21q0 -58 -20 -85t-50 -42t-65 -28t-65 -42t-50 -85t-20 -158q0 -36 1 -66t5 -60t11 -63t17 -75q4 -2 17 -3t17 -1q38 0 83 30 t87 69t76 79t50 58q-10 14 -1 30t24 31t29 26l14 11q2 -4 3 -24t1 -26q0 -68 -22 -114t-58 -80t-81 -60t-89 -53t-84 -60t-66 -79q-10 -16 -18 -58t-13 -89t-6 -90t5 -61l-36 -32q-36 10 -44 32t-3 50t11 60t-3 62t-44 54t-113 38q-76 14 -122 56t-46 128zM146 512 q0 -50 18 -68t68 -18h20t28 3t24 10t10 23v364q-30 -24 -60 -62t-54 -81t-39 -88t-15 -83z" />
<glyph unicode="&#xa3;" horiz-adv-x="1422" d="M32 528q0 50 34 74t78 40t88 33t64 53q-10 126 8 256t76 237t160 175t262 68q0 -54 -30 -90t-75 -67t-98 -62t-98 -73t-75 -101t-30 -145q0 -8 4 -27t9 -40t11 -40t10 -27q4 0 16 -1t16 -1q46 0 89 16t85 35t86 35t90 16q22 0 36 -15t14 -37q0 -20 -30 -34t-68 -24 t-70 -16t-34 -6q-12 -4 -41 -18t-60 -30t-59 -30t-38 -20q-4 -16 -9 -54t-10 -80t-9 -79t-4 -51v-24t1 -37t2 -35t1 -22q76 0 137 -8t116 -18t111 -18t122 -8q68 0 126 23t114 50t112 50t120 23q0 -70 -49 -122t-118 -87t-146 -53t-131 -18q-56 0 -108 12t-103 25t-103 25 t-106 12q-50 0 -89 -27t-75 -58t-71 -58t-77 -27q-38 0 -46 29t-8 55q0 36 18 72t41 71t45 70t30 67q4 12 1 40t-9 58t-11 58t-5 40q-4 0 -4 3t-4 1q-6 -2 -30 -12t-53 -21t-53 -21t-30 -12q-2 0 -7 -1t-9 -1q-14 0 -32 6t-18 28z" />
<glyph unicode="&#xa4;" horiz-adv-x="1882" d="M30 1174q0 36 29 43t55 7h26t26 -2q16 -12 58 -41t89 -60t90 -59t59 -38q26 -16 42 -25t40 -9q48 0 96 21t96 45t99 45t107 21h16q6 0 30 -5t52 -10t52 -10t30 -7q2 0 9 -1t9 -1h10q4 0 6 2q52 26 110 63t115 78t110 81t95 74q2 0 8 1t8 1q24 0 55 -10t31 -40 q0 -28 -25 -47t-45 -35q-18 -16 -65 -54t-100 -80t-100 -79t-65 -51v-18v-16q2 -20 6 -72t10 -110t10 -110t6 -72q30 -40 80 -74t107 -68t116 -68t106 -72t77 -82t30 -96h-152l-42 30t-100 72t-120 87t-102 75q-18 12 -22 19t-7 10t-9 3h-26h-34q-10 -4 -43 -19t-72 -33 t-73 -32t-42 -16q-22 -4 -73 -5t-110 -1t-111 1t-72 5q-42 -34 -78 -76t-71 -86t-71 -88t-76 -80q-2 0 -7 -1t-9 -1q-34 0 -61 16t-27 52q0 4 2 16t4 16q32 26 78 63t88 82t71 96t29 109q-2 0 -2 2v6v6q-2 6 -13 25t-23 41t-21 41t-9 25q-4 14 -5 52t-1 80t1 80t5 52 q-18 20 -54 44t-81 50t-92 53t-85 56t-63 57t-25 56zM586 694q0 -66 24 -111t64 -73t94 -40t112 -12q156 0 218 82t62 224q0 60 -23 99t-63 60t-92 29t-110 8t-109 -21t-91 -57t-63 -85t-23 -103z" />
<glyph unicode="&#xa5;" d="M50 1454v78q72 0 124 -40t90 -101t67 -131t59 -131t62 -101t78 -40q2 0 8 1t6 3l330 528h100v-66l-364 -628v-98q70 30 142 33t148 3h28t35 -1t30 -2t15 -1l32 -32l-32 -34q-24 -4 -68 -9t-96 -13t-103 -22t-91 -38t-61 -61t-11 -89h16h16q20 4 72 14t110 20t110 19 t72 13q24 -4 46 -14t22 -34v-10t-2 -8q-18 -2 -65 -11t-99 -19t-100 -20t-66 -14q-16 -4 -38 -14t-43 -21t-36 -21t-15 -12v-298q0 -12 -8 -20t-19 -11t-23 -4t-18 -1q-42 0 -56 38t-13 85t8 89t7 50q-44 0 -83 -16t-76 -36t-77 -36t-86 -16q0 52 23 83t58 52t76 36t76 34 t58 47t23 74q0 6 -1 25t-1 23q-26 -16 -64 -31t-76 -28t-72 -23t-52 -16q-20 12 -44 45t-24 53q0 34 40 51t94 28t110 22t88 33v15t1 24t1 25v18q0 50 -10 84t-28 63t-43 59t-53 74q-30 46 -75 118t-87 140t-72 118t-30 54z" />
<glyph unicode="&#xa8;" horiz-adv-x="546" d="M68 1518q0 26 11 47t41 21t48 -21t34 -47q-16 -24 -34 -46t-48 -22t-41 22t-11 46zM362 1514q0 26 11 47t41 21t48 -21t34 -47q-16 -24 -34 -46t-48 -22t-41 22t-11 46z" />
<glyph unicode="&#xa9;" horiz-adv-x="1784" d="M46 1028q0 176 43 328t130 262t220 173t315 63h32t39 -1t34 -2l15 -1q6 0 25 -10t41 -22t42 -22t26 -12q114 -32 210 -60t174 -65t137 -86t99 -124t60 -179t20 -250q0 -198 -45 -382t-144 -326t-255 -227t-376 -85q-138 0 -254 43t-210 118t-164 175t-118 214t-72 236 t-24 242zM146 1026q0 -186 56 -345t161 -274t254 -180t335 -65q180 0 304 72t202 191t113 273t35 320q0 190 -45 302t-130 176t-209 95t-282 59q-34 8 -55 25t-39 35t-41 31t-59 13q-150 0 -263 -64t-188 -167t-112 -233t-37 -264zM542 942q0 64 12 142t44 145t87 113 t143 46q28 0 60 -25t59 -61t44 -75t17 -69q0 -22 -24 -55t-44 -47q-16 8 -31 46t-33 77t-42 65t-58 12q-48 -20 -75 -56t-40 -79t-16 -90t-3 -89q0 -54 7 -110t29 -103t63 -76t109 -29q64 0 107 25t81 54t80 54t106 25q0 -64 -36 -117t-90 -91t-118 -59t-120 -21 q-94 0 -155 41t-97 106t-51 144t-15 157z" />
<glyph unicode="&#xad;" horiz-adv-x="1018" d="M38 630q0 6 2 10q0 4 2 6q92 14 175 22t164 11t164 4t175 1h55t69 -1t59 -1h29l34 -102q-158 -6 -306 -12q-64 -2 -131 -5t-131 -6t-122 -5t-102 -4h-40q-34 0 -65 22t-31 60z" />
<glyph unicode="&#xae;" horiz-adv-x="1718" d="M48 1076q0 142 69 271t181 227t252 156t282 58q162 0 314 -61t269 -166t187 -249t70 -308q0 -168 -58 -346t-164 -325t-257 -241t-337 -94q-126 0 -236 49t-200 132t-159 193t-116 229t-72 242t-25 233zM176 1060q0 -90 20 -194t59 -207t97 -199t133 -169t168 -117 t201 -44q150 0 280 80t227 204t152 273t55 287q0 128 -49 238t-132 197t-190 148t-223 93q-6 -6 -31 -18t-35 -14q-12 -2 -61 -6t-105 -9t-104 -10t-60 -7q-94 -20 -169 -72t-127 -123t-79 -157t-27 -174zM444 1114q0 42 45 86t107 79t126 57t102 22q82 0 116 -39t34 -129 q0 -60 -23 -115t-58 -106t-75 -95t-74 -82q106 -44 205 -102t189 -128q0 -2 1 -8t1 -10q0 -38 -29 -45t-59 -7q-58 0 -106 26t-96 57t-97 57t-109 26v-296q0 -18 -18 -26t-32 -8q-24 0 -49 57t-46 132t-36 145t-17 98q0 2 5 12t11 21t12 21t6 12v14q0 70 -18 137t-18 137z M578 1024q2 -10 6 -33t10 -50t10 -51t6 -32l198 198v190q-36 0 -77 -17t-75 -46t-56 -66t-22 -75v-18z" />
<glyph unicode="&#xaf;" horiz-adv-x="1100" d="M98 1550q0 6 2 10q0 4 2 6q92 14 175 22t164 11t164 4t175 1h55t69 -1t59 -1h29l34 -102q-158 -6 -306 -12q-64 -2 -131 -5t-131 -6t-122 -5t-102 -4h-40q-34 0 -65 22t-31 60z" />
<glyph unicode="&#xb4;" horiz-adv-x="544" d="M76 1518q0 44 36 90t86 94t100 98t78 102q4 0 16 3t16 3q22 0 39 -5t27 -33q-20 -78 -55 -134t-78 -101t-93 -83t-102 -80q-28 4 -49 13t-21 33z" />
<glyph unicode="&#xb8;" horiz-adv-x="496" d="M-46 -497q0 19 11 36t31 21q46 -24 108 -19t117 28t92 58t34 70t-56 64t-177 41h-48q-12 42 -19 72t-11 59t-5 59t-1 72q16 -2 36 9t37 5t27 -42t8 -130q130 4 206 -36t104 -99t9 -126t-77 -120t-152 -80t-220 -5q-28 8 -41 26t-13 37z" />
<glyph unicode="&#xbf;" horiz-adv-x="744" d="M3 222q0 77 29.5 147t74.5 131.5t100.5 114.5t108.5 98q6 29 1 58.5t-14.5 61.5l-19 64t-11.5 62q58 25 98 3.5t62 -71t29.5 -115t-0.5 -126.5q0 -19 -24.5 -35t-59 -35.5t-76.5 -45.5t-76.5 -63.5t-58.5 -90t-24 -124.5q0 -41 22 -70.5t56.5 -48t74.5 -27.5t75 -9 q42 0 78 16t70.5 36.5t70 37t75.5 16.5q21 0 40 -4t29 -31q-140 -174 -363 -174q-50 0 -114 9.5t-119.5 35t-94.5 68.5t-39 111zM110 1222q0 45 41 73.5t81 28.5q50 0 50 -70q0 -55 -23 -63t-59 -8h-20.5t-30.5 3t-27.5 11t-11.5 25z" />
<glyph unicode="&#xc0;" horiz-adv-x="1252" d="M14 70q78 152 148 328t133 357t117 358t96 331q50 16 94 0t70 -66l300 -716q76 -18 92 -70t6 -130q4 -24 25 -63t46 -85t50 -94t37 -92t6 -79t-42 -53q-42 0 -72 36t-51 89t-39 114t-35 113t-39 85t-52 29l-560 -64q-22 -18 -50 -67t-56 -106t-53 -111t-41 -82 q-4 -8 -29 -20t-35 -12q-26 0 -48 25t-18 45zM408 590q0 -20 3 -29t13 -12t29 -2t51 1q24 2 68 8t96 12t107 13t97 13q-6 14 -21 52t-35 88t-42 104t-42 104t-36 87t-24 53q-6 10 -16 28t-24 38t-29 37t-29 27q-10 -10 -24 -48t-29 -91t-31 -118t-31 -126t-28 -115t-21 -88 q0 -2 -1 -16t-1 -20zM442 1988l66 64q56 -48 95 -88t71 -81t62 -88t72 -111q0 -4 1 -16t1 -18q0 -24 -11 -45t-39 -21q-32 0 -48 21t-36 45q-38 48 -79 106t-76 109t-57 86t-22 37z" />
<glyph unicode="&#xc1;" horiz-adv-x="1252" d="M14 70q78 152 148 328t133 357t117 358t96 331q50 16 94 0t70 -66l300 -716q76 -18 92 -70t6 -130q4 -24 25 -63t46 -85t50 -94t37 -92t6 -79t-42 -53q-42 0 -72 36t-51 89t-39 114t-35 113t-39 85t-52 29l-560 -64q-22 -18 -50 -67t-56 -106t-53 -111t-41 -82 q-4 -8 -29 -20t-35 -12q-26 0 -48 25t-18 45zM408 590q0 -20 3 -29t13 -12t29 -2t51 1q24 2 68 8t96 12t107 13t97 13q-6 14 -21 52t-35 88t-42 104t-42 104t-36 87t-24 53q-6 10 -16 28t-24 38t-29 37t-29 27q-10 -10 -24 -48t-29 -91t-31 -118t-31 -126t-28 -115t-21 -88 q0 -2 -1 -16t-1 -20zM426 1650q0 44 36 90t86 94t100 98t78 102q4 0 16 3t16 3q22 0 39 -5t27 -33q-20 -78 -55 -134t-78 -101t-93 -83t-102 -80q-28 4 -49 13t-21 33z" />
<glyph unicode="&#xc2;" horiz-adv-x="1252" d="M14 70q78 152 148 328t133 357t117 358t96 331q50 16 94 0t70 -66l300 -716q76 -18 92 -70t6 -130q4 -24 25 -63t46 -85t50 -94t37 -92t6 -79t-42 -53q-42 0 -72 36t-51 89t-39 114t-35 113t-39 85t-52 29l-560 -64q-22 -18 -50 -67t-56 -106t-53 -111t-41 -82 q-4 -8 -29 -20t-35 -12q-26 0 -48 25t-18 45zM272 1660q0 8 1 20t3 14l384 328l318 -440q0 -2 1 -8t1 -10q0 -22 -10 -35t-25 -19t-34 -7t-35 -1q-24 0 -48 22t-47 54t-46 69t-43 67t-36 47t-28 9l-274 -188q-2 0 -8 -1t-10 -1q-38 0 -51 25t-13 55zM408 590q0 -20 3 -29 t13 -12t29 -2t51 1q24 2 68 8t96 12t107 13t97 13q-6 14 -21 52t-35 88t-42 104t-42 104t-36 87t-24 53q-6 10 -16 28t-24 38t-29 37t-29 27q-10 -10 -24 -48t-29 -91t-31 -118t-31 -126t-28 -115t-21 -88q0 -2 -1 -16t-1 -20z" />
<glyph unicode="&#xc3;" horiz-adv-x="1252" d="M14 70q78 152 148 328t133 357t117 358t96 331q50 16 94 0t70 -66l300 -716q76 -18 92 -70t6 -130q4 -24 25 -63t46 -85t50 -94t37 -92t6 -79t-42 -53q-42 0 -72 36t-51 89t-39 114t-35 113t-39 85t-52 29l-560 -64q-22 -18 -50 -67t-56 -106t-53 -111t-41 -82 q-4 -8 -29 -20t-35 -12q-26 0 -48 25t-18 45zM128 1634q2 72 24 144t63 129t102 92t139 35q62 2 107 -20t84 -57t76 -78t83 -81q34 0 74 28t76 63t63 68t35 43q28 -22 49 -42t17 -60q-16 -16 -49 -55t-75 -78t-87 -69t-83 -30q-68 -6 -117 23t-91 70t-84 83t-92 64 q-42 0 -69 -23t-45 -57t-31 -73t-28 -73t-36 -57t-55 -23q-16 0 -28 7t-22 27zM408 590q0 -20 3 -29t13 -12t29 -2t51 1q24 2 68 8t96 12t107 13t97 13q-6 14 -21 52t-35 88t-42 104t-42 104t-36 87t-24 53q-6 10 -16 28t-24 38t-29 37t-29 27q-10 -10 -24 -48t-29 -91 t-31 -118t-31 -126t-28 -115t-21 -88q0 -2 -1 -16t-1 -20z" />
<glyph unicode="&#xc4;" horiz-adv-x="1252" d="M14 70q78 152 148 328t133 357t117 358t96 331q50 16 94 0t70 -66l300 -716q76 -18 92 -70t6 -130q4 -24 25 -63t46 -85t50 -94t37 -92t6 -79t-42 -53q-42 0 -72 36t-51 89t-39 114t-35 113t-39 85t-52 29l-560 -64q-22 -18 -50 -67t-56 -106t-53 -111t-41 -82 q-4 -8 -29 -20t-35 -12q-26 0 -48 25t-18 45zM408 590q0 -20 3 -29t13 -12t29 -2t51 1q24 2 68 8t96 12t107 13t97 13q-6 14 -21 52t-35 88t-42 104t-42 104t-36 87t-24 53q-6 10 -16 28t-24 38t-29 37t-29 27q-10 -10 -24 -48t-29 -91t-31 -118t-31 -126t-28 -115t-21 -88 q0 -2 -1 -16t-1 -20zM412 1650q0 26 11 47t41 21t48 -21t34 -47q-16 -24 -34 -46t-48 -22t-41 22t-11 46zM706 1646q0 26 11 47t41 21t48 -21t34 -47q-16 -24 -34 -46t-48 -22t-41 22t-11 46z" />
<glyph unicode="&#xc5;" horiz-adv-x="1252" d="M14 70q78 152 148 328t133 357t117 358t96 331q50 16 94 0t70 -66l300 -716q76 -18 92 -70t6 -130q4 -24 25 -63t46 -85t50 -94t37 -92t6 -79t-42 -53q-42 0 -72 36t-51 89t-39 114t-35 113t-39 85t-52 29l-560 -64q-22 -18 -50 -67t-56 -106t-53 -111t-41 -82 q-4 -8 -29 -20t-35 -12q-26 0 -48 25t-18 45zM370 1518q-6 58 27 118t105 104t182 40q32 0 61 -26t47 -61t20 -71t-18 -60q-136 -106 -228 -130t-141 2t-55 84zM408 590q0 -20 3 -29t13 -12t29 -2t51 1q24 2 68 8t96 12t107 13t97 13q-6 14 -21 52t-35 88t-42 104t-42 104 t-36 87t-24 53q-6 10 -16 28t-24 38t-29 37t-29 27q-10 -10 -24 -48t-29 -91t-31 -118t-31 -126t-28 -115t-21 -88q0 -2 -1 -16t-1 -20zM430 1538q0 -18 21 -25t52 -7t68 9t69 25t53 40t23 56q0 26 -6 45t-28 19q-24 0 -67 -15t-84 -39t-71 -53t-30 -55z" />
<glyph unicode="&#xc6;" horiz-adv-x="2408" d="M14 70q52 102 132 214t172 228t188 235t180 236t149 229t93 216q74 24 130 -22q18 -2 39 -7t37 -15t26 -26t6 -38q78 20 172 45t194 46t201 35t195 14q8 0 23 -1t31 -2t28 -3t14 -2q22 -28 26 -46t0 -30t-13 -17t-13 -5q-90 2 -206 -14t-235 -43t-229 -64t-188 -79 q8 -70 23 -145t7 -145q188 0 374 13t374 13q22 0 36 -13t14 -35q0 -18 -7 -29t-29 -21q-22 -2 -69 -7t-106 -12t-123 -14t-123 -14t-106 -13t-69 -8q-6 0 -25 -4t-40 -9t-40 -11t-25 -8q0 -120 11 -241t23 -247q110 -6 218 -2t216 12l216 16t218 10q14 0 56 1t86 -5t79 -24 t35 -56q0 -20 -7 -31t-27 -21q-144 6 -292 7t-295 -8t-289 -32t-274 -67q-4 -2 -7 -3t-7 -5q-28 0 -50 16q-32 10 -40 42q-32 48 -54 119t-42 137t-43 111t-59 41l-560 -64q-22 -18 -50 -67t-56 -106t-53 -111t-41 -82q-4 -8 -29 -20t-35 -12q-26 0 -48 25t-18 45zM504 548 q24 2 81 10t126 18t137 20t110 16l36 584z" />
<glyph unicode="&#xc7;" horiz-adv-x="992" d="M48 826q0 64 5 136t21 143t44 136t74 115t113 80t161 30q90 0 163 -35t123 -95t77 -138t27 -164h-106q-8 50 -25 100t-44 92t-67 70t-96 36q-74 10 -127 -9t-91 -55t-61 -85t-36 -103t-18 -107t-5 -97q0 -32 5 -99t18 -149t35 -170t55 -160t79 -118t108 -46q58 0 112 36 t105 79t99 79t94 36q22 0 37 -13t15 -35q0 -68 -51 -126t-123 -100t-152 -66t-136 -24q-92 0 -160 43t-116 114t-79 160t-48 181t-23 178t-6 150zM316 -499q0 19 11 36t31 21q46 -24 108 -19t117 28t92 58t34 70t-56 64t-177 41h-48q-12 42 -19 72t-11 59t-5 59t-1 72 q16 -2 36 9t37 5t27 -42t8 -130q130 4 206 -36t104 -99t9 -126t-77 -120t-152 -80t-220 -5q-28 8 -41 26t-13 37z" />
<glyph unicode="&#xc8;" horiz-adv-x="1454" d="M38 1402q14 0 40 -3t50 -12t41 -26t11 -47q78 20 172 45t194 46t201 35t195 14q8 0 23 -1t31 -2t28 -3t14 -2q22 -28 26 -46t0 -30t-13 -17t-13 -5q-90 2 -206 -14t-235 -43t-229 -64t-188 -79q8 -70 23 -145t7 -145q188 0 374 13t374 13q22 0 36 -13t14 -35 q0 -18 -7 -29t-29 -21q-22 -2 -69 -7t-106 -12t-123 -14t-123 -14t-106 -13t-69 -8q-6 0 -25 -4t-40 -9t-40 -11t-25 -8q0 -120 11 -241t23 -247q110 -6 218 -2t216 12l216 16t218 10q14 0 56 1t86 -5t79 -24t35 -56q0 -20 -7 -31t-27 -21q-144 6 -292 7t-296 -8t-291 -32 t-275 -67q-46 0 -75 15t-29 67q0 30 6 47t13 32t13 33t6 52q0 134 -18 281t-39 297t-38 298t-17 282zM544 1988l66 64q56 -48 95 -88t71 -81t62 -88t72 -111q0 -4 1 -16t1 -18q0 -24 -11 -45t-39 -21q-32 0 -48 21t-36 45q-38 48 -79 106t-76 109t-57 86t-22 37z" />
<glyph unicode="&#xc9;" horiz-adv-x="1454" d="M38 1402q14 0 40 -3t50 -12t41 -26t11 -47q78 20 172 45t194 46t201 35t195 14q8 0 23 -1t31 -2t28 -3t14 -2q22 -28 26 -46t0 -30t-13 -17t-13 -5q-90 2 -206 -14t-235 -43t-229 -64t-188 -79q8 -70 23 -145t7 -145q188 0 374 13t374 13q22 0 36 -13t14 -35 q0 -18 -7 -29t-29 -21q-22 -2 -69 -7t-106 -12t-123 -14t-123 -14t-106 -13t-69 -8q-6 0 -25 -4t-40 -9t-40 -11t-25 -8q0 -120 11 -241t23 -247q110 -6 218 -2t216 12l216 16t218 10q14 0 56 1t86 -5t79 -24t35 -56q0 -20 -7 -31t-27 -21q-144 6 -292 7t-296 -8t-291 -32 t-275 -67q-46 0 -75 15t-29 67q0 30 6 47t13 32t13 33t6 52q0 134 -18 281t-39 297t-38 298t-17 282zM528 1650q0 44 36 90t86 94t100 98t78 102q4 0 16 3t16 3q22 0 39 -5t27 -33q-20 -78 -55 -134t-78 -101t-93 -83t-102 -80q-28 4 -49 13t-21 33z" />
<glyph unicode="&#xca;" horiz-adv-x="1454" d="M38 1402q14 0 40 -3t50 -12t41 -26t11 -47q78 20 172 45t194 46t201 35t195 14q8 0 23 -1t31 -2t28 -3t14 -2q22 -28 26 -46t0 -30t-13 -17t-13 -5q-90 2 -206 -14t-235 -43t-229 -64t-188 -79q8 -70 23 -145t7 -145q188 0 374 13t374 13q22 0 36 -13t14 -35 q0 -18 -7 -29t-29 -21q-22 -2 -69 -7t-106 -12t-123 -14t-123 -14t-106 -13t-69 -8q-6 0 -25 -4t-40 -9t-40 -11t-25 -8q0 -120 11 -241t23 -247q110 -6 218 -2t216 12l216 16t218 10q14 0 56 1t86 -5t79 -24t35 -56q0 -20 -7 -31t-27 -21q-144 6 -292 7t-296 -8t-291 -32 t-275 -67q-46 0 -75 15t-29 67q0 30 6 47t13 32t13 33t6 52q0 134 -18 281t-39 297t-38 298t-17 282zM372 1660q0 8 1 20t3 14l384 328l318 -440q0 -2 1 -8t1 -10q0 -22 -10 -35t-25 -19t-34 -7t-35 -1q-24 0 -48 22t-47 54t-46 69t-43 67t-36 47t-28 9l-274 -188 q-2 0 -8 -1t-10 -1q-38 0 -51 25t-13 55z" />
<glyph unicode="&#xcb;" horiz-adv-x="1454" d="M38 1402q14 0 40 -3t50 -12t41 -26t11 -47q78 20 172 45t194 46t201 35t195 14q8 0 23 -1t31 -2t28 -3t14 -2q22 -28 26 -46t0 -30t-13 -17t-13 -5q-90 2 -206 -14t-235 -43t-229 -64t-188 -79q8 -70 23 -145t7 -145q188 0 374 13t374 13q22 0 36 -13t14 -35 q0 -18 -7 -29t-29 -21q-22 -2 -69 -7t-106 -12t-123 -14t-123 -14t-106 -13t-69 -8q-6 0 -25 -4t-40 -9t-40 -11t-25 -8q0 -120 11 -241t23 -247q110 -6 218 -2t216 12l216 16t218 10q14 0 56 1t86 -5t79 -24t35 -56q0 -20 -7 -31t-27 -21q-144 6 -292 7t-296 -8t-291 -32 t-275 -67q-46 0 -75 15t-29 67q0 30 6 47t13 32t13 33t6 52q0 134 -18 281t-39 297t-38 298t-17 282zM512 1650q0 26 11 47t41 21t48 -21t34 -47q-16 -24 -34 -46t-48 -22t-41 22t-11 46zM806 1646q0 26 11 47t41 21t48 -21t34 -47q-16 -24 -34 -46t-48 -22t-41 22t-11 46z " />
<glyph unicode="&#xcc;" horiz-adv-x="346" d="M-8 1988l66 64q56 -48 95 -88t71 -81t62 -88t72 -111q0 -4 1 -16t1 -18q0 -24 -11 -45t-39 -21q-32 0 -48 21t-36 45q-38 48 -79 106t-76 109t-57 86t-22 37zM70 1378q34 44 61 33t49 -63t39 -137t30 -185t23 -208t17 -207t11 -182t8 -133v-52t-1 -80t-1 -80v-52 q-10 -28 -27 -32t-37 -4q-22 0 -40 4t-26 32q10 172 -5 341t-38 336t-43 334t-20 335z" />
<glyph unicode="&#xcd;" horiz-adv-x="346" d="M-24 1650q0 44 36 90t86 94t100 98t78 102q4 0 16 3t16 3q22 0 39 -5t27 -33q-20 -78 -55 -134t-78 -101t-93 -83t-102 -80q-28 4 -49 13t-21 33zM70 1378q34 44 61 33t49 -63t39 -137t30 -185t23 -208t17 -207t11 -182t8 -133v-52t-1 -80t-1 -80v-52q-10 -28 -27 -32 t-37 -4q-22 0 -40 4t-26 32q10 172 -5 341t-38 336t-43 334t-20 335z" />
<glyph unicode="&#xce;" horiz-adv-x="346" d="M-178 1660q0 8 1 20t3 14l384 328l318 -440q0 -2 1 -8t1 -10q0 -22 -10 -35t-25 -19t-34 -7t-35 -1q-24 0 -48 22t-47 54t-46 69t-43 67t-36 47t-28 9l-274 -188q-2 0 -8 -1t-10 -1q-38 0 -51 25t-13 55zM70 1378q34 44 61 33t49 -63t39 -137t30 -185t23 -208t17 -207 t11 -182t8 -133v-52t-1 -80t-1 -80v-52q-10 -28 -27 -32t-37 -4q-22 0 -40 4t-26 32q10 172 -5 341t-38 336t-43 334t-20 335z" />
<glyph unicode="&#xcf;" horiz-adv-x="346" d="M-38 1650q0 26 11 47t41 21t48 -21t34 -47q-16 -24 -34 -46t-48 -22t-41 22t-11 46zM70 1378q34 44 61 33t49 -63t39 -137t30 -185t23 -208t17 -207t11 -182t8 -133v-52t-1 -80t-1 -80v-52q-10 -28 -27 -32t-37 -4q-22 0 -40 4t-26 32q10 172 -5 341t-38 336t-43 334 t-20 335zM256 1646q0 26 11 47t41 21t48 -21t34 -47q-16 -24 -34 -46t-48 -22t-41 22t-11 46z" />
<glyph unicode="&#xd1;" horiz-adv-x="1370" d="M32 1354q-2 14 6 21t20 10t23 4t17 1q44 0 69 -16t65 -54q104 -98 212 -215t226 -228t247 -205t273 -144v27t1 40t1 40v27q0 82 -16 163t-36 160t-36 159t-16 162q0 40 13 62t55 22q30 0 54 -49t43 -127t33 -173t23 -187t13 -170t4 -122v-27t-1 -40t-2 -40t-3 -25 t-10 -17t-18 -22t-20 -19t-16 -10q-2 0 -15 4t-29 10l-32 12t-24 10q-30 14 -88 49t-167 117t-280 224t-423 370q0 -6 -1 -19t-1 -17q0 -124 22 -246t47 -243t47 -244t22 -247v-44t-6 -41t-20 -34t-44 -23l-32 32zM186 1634q2 72 24 144t63 129t102 92t139 35q62 2 107 -20 t84 -57t76 -78t83 -81q34 0 74 28t76 63t63 68t35 43q28 -22 49 -42t17 -60q-16 -16 -49 -55t-75 -78t-87 -69t-83 -30q-68 -6 -117 23t-91 70t-84 83t-92 64q-42 0 -69 -23t-45 -57t-31 -73t-28 -73t-36 -57t-55 -23q-16 0 -28 7t-22 27z" />
<glyph unicode="&#xd2;" d="M30 646q0 76 10 173t39 190t81 169t136 110q192 -8 330 -46t227 -122t131 -220t42 -338q0 -118 -35 -220t-101 -179t-162 -121t-218 -44q-130 0 -221 59t-148 152t-84 209t-27 228zM162 648q0 -96 19 -189t64 -166t118 -117t181 -44q56 0 112 13t103 42t82 72t49 103 q0 12 1 41t2 60t1 59v40q0 82 -15 186t-55 195t-111 153t-185 62q-16 0 -51 -4t-74 -12t-77 -21t-62 -31q-32 -74 -52 -128t-31 -102t-15 -98t-4 -114zM362 1988l66 64q56 -48 95 -88t71 -81t62 -88t72 -111q0 -4 1 -16t1 -18q0 -24 -11 -45t-39 -21q-32 0 -48 21t-36 45 q-38 48 -79 106t-76 109t-57 86t-22 37z" />
<glyph unicode="&#xd3;" d="M30 646q0 76 10 173t39 190t81 169t136 110q192 -8 330 -46t227 -122t131 -220t42 -338q0 -118 -35 -220t-101 -179t-162 -121t-218 -44q-130 0 -221 59t-148 152t-84 209t-27 228zM162 648q0 -96 19 -189t64 -166t118 -117t181 -44q56 0 112 13t103 42t82 72t49 103 q0 12 1 41t2 60t1 59v40q0 82 -15 186t-55 195t-111 153t-185 62q-16 0 -51 -4t-74 -12t-77 -21t-62 -31q-32 -74 -52 -128t-31 -102t-15 -98t-4 -114zM346 1650q0 44 36 90t86 94t100 98t78 102q4 0 16 3t16 3q22 0 39 -5t27 -33q-20 -78 -55 -134t-78 -101t-93 -83 t-102 -80q-28 4 -49 13t-21 33z" />
<glyph unicode="&#xd4;" d="M30 646q0 76 10 173t39 190t81 169t136 110q192 -8 330 -46t227 -122t131 -220t42 -338q0 -118 -35 -220t-101 -179t-162 -121t-218 -44q-130 0 -221 59t-148 152t-84 209t-27 228zM162 648q0 -96 19 -189t64 -166t118 -117t181 -44q56 0 112 13t103 42t82 72t49 103 q0 12 1 41t2 60t1 59v40q0 82 -15 186t-55 195t-111 153t-185 62q-16 0 -51 -4t-74 -12t-77 -21t-62 -31q-32 -74 -52 -128t-31 -102t-15 -98t-4 -114zM190 1660q0 8 1 20t3 14l384 328l318 -440q0 -2 1 -8t1 -10q0 -22 -10 -35t-25 -19t-34 -7t-35 -1q-24 0 -48 22t-47 54 t-46 69t-43 67t-36 47t-28 9l-274 -188q-2 0 -8 -1t-10 -1q-38 0 -51 25t-13 55z" />
<glyph unicode="&#xd5;" d="M30 646q0 76 10 173t39 190t81 169t136 110q192 -8 330 -46t227 -122t131 -220t42 -338q0 -118 -35 -220t-101 -179t-162 -121t-218 -44q-130 0 -221 59t-148 152t-84 209t-27 228zM48 1634q2 72 24 144t63 129t102 92t139 35q62 2 107 -20t84 -57t76 -78t83 -81 q34 0 74 28t76 63t63 68t35 43q28 -22 49 -42t17 -60q-16 -16 -49 -55t-75 -78t-87 -69t-83 -30q-68 -6 -117 23t-91 70t-84 83t-92 64q-42 0 -69 -23t-45 -57t-31 -73t-28 -73t-36 -57t-55 -23q-16 0 -28 7t-22 27zM162 648q0 -96 19 -189t64 -166t118 -117t181 -44 q56 0 112 13t103 42t82 72t49 103q0 12 1 41t2 60t1 59v40q0 82 -15 186t-55 195t-111 153t-185 62q-16 0 -51 -4t-74 -12t-77 -21t-62 -31q-32 -74 -52 -128t-31 -102t-15 -98t-4 -114z" />
<glyph unicode="&#xd6;" d="M30 646q0 76 10 173t39 190t81 169t136 110q192 -8 330 -46t227 -122t131 -220t42 -338q0 -118 -35 -220t-101 -179t-162 -121t-218 -44q-130 0 -221 59t-148 152t-84 209t-27 228zM162 648q0 -96 19 -189t64 -166t118 -117t181 -44q56 0 112 13t103 42t82 72t49 103 q0 12 1 41t2 60t1 59v40q0 82 -15 186t-55 195t-111 153t-185 62q-16 0 -51 -4t-74 -12t-77 -21t-62 -31q-32 -74 -52 -128t-31 -102t-15 -98t-4 -114zM330 1650q0 26 11 47t41 21t48 -21t34 -47q-16 -24 -34 -46t-48 -22t-41 22t-11 46zM624 1646q0 26 11 47t41 21t48 -21 t34 -47q-16 -24 -34 -46t-48 -22t-41 22t-11 46z" />
<glyph unicode="&#xd7;" horiz-adv-x="926" d="M42 216v66l280 280l-180 216v14q0 22 14 37t36 15q4 0 9 -1t7 -1l198 -164h34q12 10 45 34t70 50t70 49t45 31q22 16 41 26t45 10q46 0 46 -68q0 -26 -33 -56t-77 -60l-88 -60t-66 -56q6 -4 35 -15t70 -28t86 -36t84 -38t64 -36t25 -27q0 -22 -14 -36t-34 -14q-4 0 -10 1 t-8 1q-22 6 -79 24t-120 39t-119 40t-78 27l-298 -264h-100z" />
<glyph unicode="&#xd8;" d="M30 646q0 76 10 173t39 190t81 169t136 110q192 -8 330 -46t227 -122t131 -220t42 -338q0 -118 -35 -220t-101 -179t-162 -121t-218 -44q-130 0 -221 59t-148 152t-84 209t-27 228zM110 50q0 18 12 43t28 51t33 49t27 39q10 14 41 57t72 100t87 122t87 123t71 101t40 57 q12 18 33 56t48 87t56 103t54 103t45 88t28 59h108q0 -52 -33 -136t-88 -185t-126 -212t-145 -219t-146 -206t-129 -172t-94 -118t-41 -44q-24 0 -46 12t-22 42zM162 648q0 -96 19 -189t64 -166t118 -117t181 -44q56 0 112 13t103 42t82 72t49 103q0 12 1 41t2 60t1 59v40 q0 82 -15 186t-55 195t-111 153t-185 62q-16 0 -51 -4t-74 -12t-77 -21t-62 -31q-32 -74 -52 -128t-31 -102t-15 -98t-4 -114z" />
<glyph unicode="&#xd9;" horiz-adv-x="1158" d="M48 1162q0 34 10 51t56 43q46 -18 68 -75t29 -139t6 -182t0 -201t9 -196t33 -168t72 -118t129 -45q80 0 147 55t122 142t96 197t70 221t43 210t14 167v30q0 2 -6 12t-12 22t-11 21t-5 13q0 12 9 30t24 35t33 27t34 6q30 -8 44 -24t20 -36t6 -42v-42q0 -88 -18 -209 t-54 -252t-89 -260t-123 -231t-156 -165t-188 -63q-100 0 -164 41t-101 108t-55 150t-26 167q-2 16 -7 67t-11 119t-14 144t-14 144t-11 119t-7 67q0 4 -1 19t-1 21zM396 1988l66 64q56 -48 95 -88t71 -81t62 -88t72 -111q0 -4 1 -16t1 -18q0 -24 -11 -45t-39 -21 q-32 0 -48 21t-36 45q-38 48 -79 106t-76 109t-57 86t-22 37z" />
<glyph unicode="&#xda;" horiz-adv-x="1158" d="M48 1162q0 34 10 51t56 43q46 -18 68 -75t29 -139t6 -182t0 -201t9 -196t33 -168t72 -118t129 -45q80 0 147 55t122 142t96 197t70 221t43 210t14 167v30q0 2 -6 12t-12 22t-11 21t-5 13q0 12 9 30t24 35t33 27t34 6q30 -8 44 -24t20 -36t6 -42v-42q0 -88 -18 -209 t-54 -252t-89 -260t-123 -231t-156 -165t-188 -63q-100 0 -164 41t-101 108t-55 150t-26 167q-2 16 -7 67t-11 119t-14 144t-14 144t-11 119t-7 67q0 4 -1 19t-1 21zM380 1650q0 44 36 90t86 94t100 98t78 102q4 0 16 3t16 3q22 0 39 -5t27 -33q-20 -78 -55 -134t-78 -101 t-93 -83t-102 -80q-28 4 -49 13t-21 33z" />
<glyph unicode="&#xdb;" horiz-adv-x="1158" d="M48 1162q0 34 10 51t56 43q46 -18 68 -75t29 -139t6 -182t0 -201t9 -196t33 -168t72 -118t129 -45q80 0 147 55t122 142t96 197t70 221t43 210t14 167v30q0 2 -6 12t-12 22t-11 21t-5 13q0 12 9 30t24 35t33 27t34 6q30 -8 44 -24t20 -36t6 -42v-42q0 -88 -18 -209 t-54 -252t-89 -260t-123 -231t-156 -165t-188 -63q-100 0 -164 41t-101 108t-55 150t-26 167q-2 16 -7 67t-11 119t-14 144t-14 144t-11 119t-7 67q0 4 -1 19t-1 21zM224 1660q0 8 1 20t3 14l384 328l318 -440q0 -2 1 -8t1 -10q0 -22 -10 -35t-25 -19t-34 -7t-35 -1 q-24 0 -48 22t-47 54t-46 69t-43 67t-36 47t-28 9l-274 -188q-2 0 -8 -1t-10 -1q-38 0 -51 25t-13 55z" />
<glyph unicode="&#xdc;" horiz-adv-x="1158" d="M48 1162q0 34 10 51t56 43q46 -18 68 -75t29 -139t6 -182t0 -201t9 -196t33 -168t72 -118t129 -45q80 0 147 55t122 142t96 197t70 221t43 210t14 167v30q0 2 -6 12t-12 22t-11 21t-5 13q0 12 9 30t24 35t33 27t34 6q30 -8 44 -24t20 -36t6 -42v-42q0 -88 -18 -209 t-54 -252t-89 -260t-123 -231t-156 -165t-188 -63q-100 0 -164 41t-101 108t-55 150t-26 167q-2 16 -7 67t-11 119t-14 144t-14 144t-11 119t-7 67q0 4 -1 19t-1 21zM364 1650q0 26 11 47t41 21t48 -21t34 -47q-16 -24 -34 -46t-48 -22t-41 22t-11 46zM658 1646q0 26 11 47 t41 21t48 -21t34 -47q-16 -24 -34 -46t-48 -22t-41 22t-11 46z" />
<glyph unicode="&#xdd;" horiz-adv-x="1240" d="M26 1408v8q0 2 2 6q6 6 16 12t21 11t19 8t10 1l678 -592q18 10 34 34t30 50t22 48t12 30q36 66 63 130t51 121t50 105t62 86q32 0 48 -17t20 -42t2 -55t-2 -54l-302 -544q0 -8 1 -62t2 -132t3 -167t3 -167t2 -132t1 -62q-6 -8 -30 -20t-36 -12q-4 0 -16 12t-16 20 l-68 666l-646 626q-16 16 -26 38t-10 46zM420 1650q0 44 36 90t86 94t100 98t78 102q4 0 16 3t16 3q22 0 39 -5t27 -33q-20 -78 -55 -134t-78 -101t-93 -83t-102 -80q-28 4 -49 13t-21 33z" />
<glyph unicode="&#xde;" horiz-adv-x="992" d="M32 1454q2 6 15 18t19 14q10 2 23 4t27 4l32 4v-308q0 -4 19 -16t31 -16q2 -2 6 -2h8q50 0 99 11t97 23t98 23t102 11q62 0 125 -11t113 -40t82 -78t32 -125q0 -94 -31 -160t-83 -111t-121 -71t-146 -39t-158 -19t-157 -8v-496q0 -14 -8 -21t-18 -10t-21 -4t-19 -1 q-22 0 -39 4t-27 32q10 164 4 342t-21 356t-37 353t-46 337zM198 992q0 -14 4 -47t10 -70t11 -70t9 -45q2 -6 14 -18t18 -14q8 -2 32 -3t50 -2t50 -1h34q50 0 119 6t131 28t105 66t43 120q0 52 -26 82t-65 46t-83 20t-80 4q-100 0 -196 -25t-180 -77z" />
<glyph unicode="&#xdf;" horiz-adv-x="1338" d="M46 1469v29q0 106 44 179t117 119t166 66t191 20q86 0 167 -35t143 -95t99 -137t37 -161q0 -128 -39 -237t-97 -225q70 18 142 -15t129 -90t93 -129t36 -132q0 -150 -96 -224t-252 -74q-54 0 -108 12t-107 32t-104 44t-95 46q0 4 -1 17t-1 17q0 68 68 68q42 0 81 -11 t77 -25t79 -25t87 -11q40 0 82 1t77 13t57 40t22 82q0 64 -34 105t-87 64t-118 32t-127 9t-115 -4t-81 -8q-22 10 -29 21t-7 27q0 14 48 56t105 112t105 169t48 227q0 60 -26 117t-69 100t-101 70t-122 27q-72 0 -137 -14t-114 -45t-77 -84t-28 -131q0 -10 1 -29l2 -38 t3 -36t2 -21l230 -1156q20 -40 27 -68t7 -66q0 -68 -70 -68q-32 0 -42 12t-20 58l-264 1320q0 2 -1 16t-2 32t-1 35z" />
<glyph unicode="&#xe0;" horiz-adv-x="1272" d="M48 294q0 100 32 201t91 182t145 132t194 51q90 0 173 -26t159 -74l-8 276q0 38 -16 79t-43 75t-63 57t-78 23q-58 0 -112 -24t-105 -59t-96 -76t-81 -75h-92q0 80 53 147t131 116t166 76t156 27q82 0 144 -40t105 -102t67 -139t30 -151q8 -90 8 -188t6 -196t25 -189 t67 -165q10 -6 35 -11t49 -15t40 -27t10 -45q-14 -52 -46 -61t-68 -9q-56 0 -98 32t-74 70t-55 70t-41 32t-60 -37t-105 -82t-143 -82t-174 -37q-62 0 -121 15t-105 46t-74 81t-28 122zM210 334q0 -96 35 -133t131 -37q68 0 146 30t142 80t107 117t43 141q0 38 -32 73 t-78 63t-95 45t-81 17q-74 0 -133 -38t-100 -96t-63 -128t-22 -134zM452 1856l66 64q56 -48 95 -88t71 -81t62 -88t72 -111q0 -4 1 -16t1 -18q0 -24 -11 -45t-39 -21q-32 0 -48 21t-36 45q-38 48 -79 106t-76 109t-57 86t-22 37z" />
<glyph unicode="&#xe1;" horiz-adv-x="1272" d="M48 294q0 100 32 201t91 182t145 132t194 51q90 0 173 -26t159 -74l-8 276q0 38 -16 79t-43 75t-63 57t-78 23q-58 0 -112 -24t-105 -59t-96 -76t-81 -75h-92q0 80 53 147t131 116t166 76t156 27q82 0 144 -40t105 -102t67 -139t30 -151q8 -90 8 -188t6 -196t25 -189 t67 -165q10 -6 35 -11t49 -15t40 -27t10 -45q-14 -52 -46 -61t-68 -9q-56 0 -98 32t-74 70t-55 70t-41 32t-60 -37t-105 -82t-143 -82t-174 -37q-62 0 -121 15t-105 46t-74 81t-28 122zM210 334q0 -96 35 -133t131 -37q68 0 146 30t142 80t107 117t43 141q0 38 -32 73 t-78 63t-95 45t-81 17q-74 0 -133 -38t-100 -96t-63 -128t-22 -134zM436 1518q0 44 36 90t86 94t100 98t78 102q4 0 16 3t16 3q22 0 39 -5t27 -33q-20 -78 -55 -134t-78 -101t-93 -83t-102 -80q-28 4 -49 13t-21 33z" />
<glyph unicode="&#xe2;" horiz-adv-x="1272" d="M48 294q0 100 32 201t91 182t145 132t194 51q90 0 173 -26t159 -74l-8 276q0 38 -16 79t-43 75t-63 57t-78 23q-58 0 -112 -24t-105 -59t-96 -76t-81 -75h-92q0 80 53 147t131 116t166 76t156 27q82 0 144 -40t105 -102t67 -139t30 -151q8 -90 8 -188t6 -196t25 -189 t67 -165q10 -6 35 -11t49 -15t40 -27t10 -45q-14 -52 -46 -61t-68 -9q-56 0 -98 32t-74 70t-55 70t-41 32t-60 -37t-105 -82t-143 -82t-174 -37q-62 0 -121 15t-105 46t-74 81t-28 122zM210 334q0 -96 35 -133t131 -37q68 0 146 30t142 80t107 117t43 141q0 38 -32 73 t-78 63t-95 45t-81 17q-74 0 -133 -38t-100 -96t-63 -128t-22 -134zM282 1528q0 8 1 20t3 14l384 328l318 -440q0 -2 1 -8t1 -10q0 -22 -10 -35t-25 -19t-34 -7t-35 -1q-24 0 -48 22t-47 54t-46 69t-43 67t-36 47t-28 9l-274 -188q-2 0 -8 -1t-10 -1q-38 0 -51 25t-13 55z " />
<glyph unicode="&#xe3;" horiz-adv-x="1272" d="M48 294q0 100 32 201t91 182t145 132t194 51q90 0 173 -26t159 -74l-8 276q0 38 -16 79t-43 75t-63 57t-78 23q-58 0 -112 -24t-105 -59t-96 -76t-81 -75h-92q0 80 53 147t131 116t166 76t156 27q82 0 144 -40t105 -102t67 -139t30 -151q8 -90 8 -188t6 -196t25 -189 t67 -165q10 -6 35 -11t49 -15t40 -27t10 -45q-14 -52 -46 -61t-68 -9q-56 0 -98 32t-74 70t-55 70t-41 32t-60 -37t-105 -82t-143 -82t-174 -37q-62 0 -121 15t-105 46t-74 81t-28 122zM138 1502q2 72 24 144t63 129t102 92t139 35q62 2 107 -20t84 -57t76 -78t83 -81 q34 0 74 28t76 63t63 68t35 43q28 -22 49 -42t17 -60q-16 -16 -49 -55t-75 -78t-87 -69t-83 -30q-68 -6 -117 23t-91 70t-84 83t-92 64q-42 0 -69 -23t-45 -57t-31 -73t-28 -73t-36 -57t-55 -23q-16 0 -28 7t-22 27zM210 334q0 -96 35 -133t131 -37q68 0 146 30t142 80 t107 117t43 141q0 38 -32 73t-78 63t-95 45t-81 17q-74 0 -133 -38t-100 -96t-63 -128t-22 -134z" />
<glyph unicode="&#xe4;" horiz-adv-x="1272" d="M48 294q0 100 32 201t91 182t145 132t194 51q90 0 173 -26t159 -74l-8 276q0 38 -16 79t-43 75t-63 57t-78 23q-58 0 -112 -24t-105 -59t-96 -76t-81 -75h-92q0 80 53 147t131 116t166 76t156 27q82 0 144 -40t105 -102t67 -139t30 -151q8 -90 8 -188t6 -196t25 -189 t67 -165q10 -6 35 -11t49 -15t40 -27t10 -45q-14 -52 -46 -61t-68 -9q-56 0 -98 32t-74 70t-55 70t-41 32t-60 -37t-105 -82t-143 -82t-174 -37q-62 0 -121 15t-105 46t-74 81t-28 122zM210 334q0 -96 35 -133t131 -37q68 0 146 30t142 80t107 117t43 141q0 38 -32 73 t-78 63t-95 45t-81 17q-74 0 -133 -38t-100 -96t-63 -128t-22 -134zM422 1518q0 26 11 47t41 21t48 -21t34 -47q-16 -24 -34 -46t-48 -22t-41 22t-11 46zM716 1514q0 26 11 47t41 21t48 -21t34 -47q-16 -24 -34 -46t-48 -22t-41 22t-11 46z" />
<glyph unicode="&#xe5;" horiz-adv-x="1272" d="M48 294q0 100 32 201t91 182t145 132t194 51q90 0 173 -26t159 -74l-8 276q0 38 -16 79t-43 75t-63 57t-78 23q-58 0 -112 -24t-105 -59t-96 -76t-81 -75h-92q0 80 53 147t131 116t166 76t156 27q82 0 144 -40t105 -102t67 -139t30 -151q8 -90 8 -188t6 -196t25 -189 t67 -165q10 -6 35 -11t49 -15t40 -27t10 -45q-14 -52 -46 -61t-68 -9q-56 0 -98 32t-74 70t-55 70t-41 32t-60 -37t-105 -82t-143 -82t-174 -37q-62 0 -121 15t-105 46t-74 81t-28 122zM210 334q0 -96 35 -133t131 -37q68 0 146 30t142 80t107 117t43 141q0 38 -32 73 t-78 63t-95 45t-81 17q-74 0 -133 -38t-100 -96t-63 -128t-22 -134zM458 1564q-6 58 27 118t105 104t182 40q32 0 61 -26t47 -61t20 -71t-18 -60q-136 -106 -228 -130t-141 2t-55 84zM518 1584q0 -18 21 -25t52 -7t68 9t69 25t53 40t23 56q0 26 -6 45t-28 19q-24 0 -67 -15 t-84 -39t-71 -53t-30 -55z" />
<glyph unicode="&#xe6;" horiz-adv-x="1984" d="M48 294q0 100 32 201t91 182t145 132t194 51q90 0 173 -26t159 -74l-8 276q0 38 -16 79t-43 75t-63 57t-78 23q-58 0 -112 -24t-105 -59t-96 -76t-81 -75h-92q0 80 53 147t131 116t166 76t156 27q82 0 144 -40t105 -102t67 -139t30 -151q8 -90 8 -188t6 -196t25 -189 t67 -165q10 -6 35 -11t49 -15t40 -27t10 -45q-14 -52 -46 -61t-68 -9q-56 0 -98 32t-74 70t-55 70t-41 32t-60 -37t-105 -82t-143 -82t-174 -37q-62 0 -121 15t-105 46t-74 81t-28 122zM210 334q0 -96 35 -133t131 -37q68 0 146 30t142 80t107 117t43 141q0 38 -32 73 t-78 63t-95 45t-81 17q-74 0 -133 -38t-100 -96t-63 -128t-22 -134zM932 782q0 92 24 191t77 179t135 132t198 52q86 0 181 -41t172 -108t123 -153t32 -178q-6 -38 -58 -58t-129 -31t-168 -16t-176 -9t-152 -11t-97 -23q-6 -56 3 -126t33 -142t62 -141t89 -124t114 -89 t137 -38q60 0 102 34t76 74t68 74t78 34q34 0 58 -9t24 -57q0 -54 -44 -103t-107 -86t-133 -59t-122 -22q-104 0 -188 42t-151 112t-116 160t-81 185t-48 187t-16 168zM1094 856h22t34 -1t34 -1h22q62 6 129 2t135 -4t134 12t128 52q0 54 -38 107t-95 96t-123 69t-122 26 q-66 0 -114 -39t-79 -94t-47 -117t-20 -108z" />
<glyph unicode="&#xe7;" horiz-adv-x="1272" d="M46 646q0 134 37 257t110 216t182 149t251 56q30 0 97 -8t135 -26t120 -48t52 -74q0 -26 -11 -47t-41 -21q-32 0 -81 14t-101 32t-102 32t-86 14q-70 8 -138 -31t-123 -109t-95 -164t-55 -194t-2 -197t62 -176t139 -131t230 -60q130 0 228 47t167 103t110 103t57 47 q14 0 33 -7t19 -25q0 -70 -32 -127t-84 -102t-118 -77t-134 -53t-132 -31t-112 -10q-142 0 -251 49t-182 136t-111 206t-38 257zM436 -517q0 19 11 36t31 21q46 -24 108 -19t117 28t92 58t34 70t-56 64t-177 41h-48q-12 42 -19 72t-11 59t-5 59t-1 72q16 -2 36 9t37 5 t27 -42t8 -130q130 4 206 -36t104 -99t9 -126t-77 -120t-152 -80t-220 -5q-28 8 -41 26t-13 37z" />
<glyph unicode="&#xe8;" d="M50 850q0 92 24 191t77 179t135 132t198 52q86 0 181 -41t172 -108t123 -153t32 -178q-6 -38 -58 -58t-129 -31t-168 -16t-176 -9t-152 -11t-97 -23q-6 -56 3 -126t33 -142t62 -141t89 -124t114 -89t137 -38q60 0 102 34t76 74t68 74t78 34q34 0 58 -9t24 -57 q0 -54 -44 -103t-107 -86t-133 -59t-122 -22q-104 0 -188 42t-151 112t-116 160t-81 185t-48 187t-16 168zM212 924h22t34 -1t34 -1h22q62 6 129 2t135 -4t134 12t128 52q0 54 -38 107t-95 96t-123 69t-122 26q-66 0 -114 -39t-79 -94t-47 -117t-20 -108zM362 1856l66 64 q56 -48 95 -88t71 -81t62 -88t72 -111q0 -4 1 -16t1 -18q0 -24 -11 -45t-39 -21q-32 0 -48 21t-36 45q-38 48 -79 106t-76 109t-57 86t-22 37z" />
<glyph unicode="&#xe9;" d="M50 850q0 92 24 191t77 179t135 132t198 52q86 0 181 -41t172 -108t123 -153t32 -178q-6 -38 -58 -58t-129 -31t-168 -16t-176 -9t-152 -11t-97 -23q-6 -56 3 -126t33 -142t62 -141t89 -124t114 -89t137 -38q60 0 102 34t76 74t68 74t78 34q34 0 58 -9t24 -57 q0 -54 -44 -103t-107 -86t-133 -59t-122 -22q-104 0 -188 42t-151 112t-116 160t-81 185t-48 187t-16 168zM212 924h22t34 -1t34 -1h22q62 6 129 2t135 -4t134 12t128 52q0 54 -38 107t-95 96t-123 69t-122 26q-66 0 -114 -39t-79 -94t-47 -117t-20 -108zM346 1518 q0 44 36 90t86 94t100 98t78 102q4 0 16 3t16 3q22 0 39 -5t27 -33q-20 -78 -55 -134t-78 -101t-93 -83t-102 -80q-28 4 -49 13t-21 33z" />
<glyph unicode="&#xea;" d="M50 850q0 92 24 191t77 179t135 132t198 52q86 0 181 -41t172 -108t123 -153t32 -178q-6 -38 -58 -58t-129 -31t-168 -16t-176 -9t-152 -11t-97 -23q-6 -56 3 -126t33 -142t62 -141t89 -124t114 -89t137 -38q60 0 102 34t76 74t68 74t78 34q34 0 58 -9t24 -57 q0 -54 -44 -103t-107 -86t-133 -59t-122 -22q-104 0 -188 42t-151 112t-116 160t-81 185t-48 187t-16 168zM190 1528q0 8 1 20t3 14l384 328l318 -440q0 -2 1 -8t1 -10q0 -22 -10 -35t-25 -19t-34 -7t-35 -1q-24 0 -48 22t-47 54t-46 69t-43 67t-36 47t-28 9l-274 -188 q-2 0 -8 -1t-10 -1q-38 0 -51 25t-13 55zM212 924h22t34 -1t34 -1h22q62 6 129 2t135 -4t134 12t128 52q0 54 -38 107t-95 96t-123 69t-122 26q-66 0 -114 -39t-79 -94t-47 -117t-20 -108z" />
<glyph unicode="&#xeb;" d="M50 850q0 92 24 191t77 179t135 132t198 52q86 0 181 -41t172 -108t123 -153t32 -178q-6 -38 -58 -58t-129 -31t-168 -16t-176 -9t-152 -11t-97 -23q-6 -56 3 -126t33 -142t62 -141t89 -124t114 -89t137 -38q60 0 102 34t76 74t68 74t78 34q34 0 58 -9t24 -57 q0 -54 -44 -103t-107 -86t-133 -59t-122 -22q-104 0 -188 42t-151 112t-116 160t-81 185t-48 187t-16 168zM212 924h22t34 -1t34 -1h22q62 6 129 2t135 -4t134 12t128 52q0 54 -38 107t-95 96t-123 69t-122 26q-66 0 -114 -39t-79 -94t-47 -117t-20 -108zM330 1518 q0 26 11 47t41 21t48 -21t34 -47q-16 -24 -34 -46t-48 -22t-41 22t-11 46zM624 1514q0 26 11 47t41 21t48 -21t34 -47q-16 -24 -34 -46t-48 -22t-41 22t-11 46z" />
<glyph unicode="&#xec;" horiz-adv-x="348" d="M-6 1856l66 64q56 -48 95 -88t71 -81t62 -88t72 -111q0 -4 1 -16t1 -18q0 -24 -11 -45t-39 -21q-32 0 -48 21t-36 45q-38 48 -79 106t-76 109t-57 86t-22 37zM84 1056h114l134 -990q0 -2 -8 -11t-19 -20t-22 -21t-19 -14q-2 -2 -7 -3t-9 -1q-30 12 -53 80t-40 168 t-28 219t-19 232t-13 210t-11 151z" />
<glyph unicode="&#xed;" horiz-adv-x="348" d="M-22 1518q0 44 36 90t86 94t100 98t78 102q4 0 16 3t16 3q22 0 39 -5t27 -33q-20 -78 -55 -134t-78 -101t-93 -83t-102 -80q-28 4 -49 13t-21 33zM84 1056h114l134 -990q0 -2 -8 -11t-19 -20t-22 -21t-19 -14q-2 -2 -7 -3t-9 -1q-30 12 -53 80t-40 168t-28 219t-19 232 t-13 210t-11 151z" />
<glyph unicode="&#xee;" horiz-adv-x="348" d="M-178 1528q0 8 1 20t3 14l384 328l318 -440q0 -2 1 -8t1 -10q0 -22 -10 -35t-25 -19t-34 -7t-35 -1q-24 0 -48 22t-47 54t-46 69t-43 67t-36 47t-28 9l-274 -188q-2 0 -8 -1t-10 -1q-38 0 -51 25t-13 55zM84 1056h114l134 -990q0 -2 -8 -11t-19 -20t-22 -21t-19 -14 q-2 -2 -7 -3t-9 -1q-30 12 -53 80t-40 168t-28 219t-19 232t-13 210t-11 151z" />
<glyph unicode="&#xef;" horiz-adv-x="348" d="M-38 1518q0 26 11 47t41 21t48 -21t34 -47q-16 -24 -34 -46t-48 -22t-41 22t-11 46zM84 1056h114l134 -990q0 -2 -8 -11t-19 -20t-22 -21t-19 -14q-2 -2 -7 -3t-9 -1q-30 12 -53 80t-40 168t-28 219t-19 232t-13 210t-11 151zM256 1514q0 26 11 47t41 21t48 -21t34 -47 q-16 -24 -34 -46t-48 -22t-41 22t-11 46z" />
<glyph unicode="&#xf1;" horiz-adv-x="1190" d="M50 1242q0 20 13 34t35 14q36 0 59 -49t35 -109t17 -113t7 -61q34 68 83 129t109 107t130 72t148 26q70 -2 139 -27t131 -82t110 -151t75 -234t28 -332t-31 -444q-2 -6 -22 -16t-45 -15t-47 -2t-26 23l10 748q0 58 -22 127t-62 128t-99 99t-131 40q-108 0 -192 -54 t-141 -136t-86 -182t-29 -192q0 -122 18 -242t18 -242q0 -38 -26 -74t-70 -36q-20 0 -37 44t-31 117t-24 170t-17 203t-13 213t-9 203t-4 174t-1 122zM96 1502q2 72 24 144t63 129t102 92t139 35q62 2 107 -20t84 -57t76 -78t83 -81q34 0 74 28t76 63t63 68t35 43 q28 -22 49 -42t17 -60q-16 -16 -49 -55t-75 -78t-87 -69t-83 -30q-68 -6 -117 23t-91 70t-84 83t-92 64q-42 0 -69 -23t-45 -57t-31 -73t-28 -73t-36 -57t-55 -23q-16 0 -28 7t-22 27z" />
<glyph unicode="&#xf2;" horiz-adv-x="890" d="M46 630q0 36 3 103t11 148t25 165t45 153t68 113t98 44q20 0 32 -11t18 -26t6 -32t-6 -31q98 14 175 -17t133 -91t94 -141t62 -168t34 -172t10 -153q0 -94 -20 -186t-68 -165t-127 -119t-195 -46q-82 0 -143 30t-106 81t-73 117t-45 136t-24 139t-7 129zM182 654 q-2 -100 9 -198t40 -173t81 -117t134 -32q66 0 116 29t83 75t49 104t16 118q0 88 -11 199t-47 209t-105 165t-185 67q-6 0 -23 -1t-35 -3t-34 -3t-22 -3q0 32 -10 5t-21 -92t-22 -157t-13 -192zM262 1856l66 64q56 -48 95 -88t71 -81t62 -88t72 -111q0 -4 1 -16t1 -18 q0 -24 -11 -45t-39 -21q-32 0 -48 21t-36 45q-38 48 -79 106t-76 109t-57 86t-22 37z" />
<glyph unicode="&#xf3;" horiz-adv-x="890" d="M46 630q0 36 3 103t11 148t25 165t45 153t68 113t98 44q20 0 32 -11t18 -26t6 -32t-6 -31q98 14 175 -17t133 -91t94 -141t62 -168t34 -172t10 -153q0 -94 -20 -186t-68 -165t-127 -119t-195 -46q-82 0 -143 30t-106 81t-73 117t-45 136t-24 139t-7 129zM182 654 q-2 -100 9 -198t40 -173t81 -117t134 -32q66 0 116 29t83 75t49 104t16 118q0 88 -11 199t-47 209t-105 165t-185 67q-6 0 -23 -1t-35 -3t-34 -3t-22 -3q0 32 -10 5t-21 -92t-22 -157t-13 -192zM246 1518q0 44 36 90t86 94t100 98t78 102q4 0 16 3t16 3q22 0 39 -5t27 -33 q-20 -78 -55 -134t-78 -101t-93 -83t-102 -80q-28 4 -49 13t-21 33z" />
<glyph unicode="&#xf4;" horiz-adv-x="890" d="M46 630q0 36 3 103t11 148t25 165t45 153t68 113t98 44q20 0 32 -11t18 -26t6 -32t-6 -31q98 14 175 -17t133 -91t94 -141t62 -168t34 -172t10 -153q0 -94 -20 -186t-68 -165t-127 -119t-195 -46q-82 0 -143 30t-106 81t-73 117t-45 136t-24 139t-7 129zM90 1528 q0 8 1 20t3 14l384 328l318 -440q0 -2 1 -8t1 -10q0 -22 -10 -35t-25 -19t-34 -7t-35 -1q-24 0 -48 22t-47 54t-46 69t-43 67t-36 47t-28 9l-274 -188q-2 0 -8 -1t-10 -1q-38 0 -51 25t-13 55zM182 654q-2 -100 9 -198t40 -173t81 -117t134 -32q66 0 116 29t83 75t49 104 t16 118q0 88 -11 199t-47 209t-105 165t-185 67q-6 0 -23 -1t-35 -3t-34 -3t-22 -3q0 32 -10 5t-21 -92t-22 -157t-13 -192z" />
<glyph unicode="&#xf5;" horiz-adv-x="890" d="M-50 1502q2 72 24 144t63 129t102 92t139 35q62 2 107 -20t84 -57t76 -78t83 -81q34 0 74 28t76 63t63 68t35 43q28 -22 49 -42t17 -60q-16 -16 -49 -55t-75 -78t-87 -69t-83 -30q-68 -6 -117 23t-91 70t-84 83t-92 64q-42 0 -69 -23t-45 -57t-31 -73t-28 -73t-36 -57 t-55 -23q-16 0 -28 7t-22 27zM46 630q0 36 3 103t11 148t25 165t45 153t68 113t98 44q20 0 32 -11t18 -26t6 -32t-6 -31q98 14 175 -17t133 -91t94 -141t62 -168t34 -172t10 -153q0 -94 -20 -186t-68 -165t-127 -119t-195 -46q-82 0 -143 30t-106 81t-73 117t-45 136 t-24 139t-7 129zM182 654q-2 -100 9 -198t40 -173t81 -117t134 -32q66 0 116 29t83 75t49 104t16 118q0 88 -11 199t-47 209t-105 165t-185 67q-6 0 -23 -1t-35 -3t-34 -3t-22 -3q0 32 -10 5t-21 -92t-22 -157t-13 -192z" />
<glyph unicode="&#xf6;" horiz-adv-x="890" d="M46 630q0 36 3 103t11 148t25 165t45 153t68 113t98 44q20 0 32 -11t18 -26t6 -32t-6 -31q98 14 175 -17t133 -91t94 -141t62 -168t34 -172t10 -153q0 -94 -20 -186t-68 -165t-127 -119t-195 -46q-82 0 -143 30t-106 81t-73 117t-45 136t-24 139t-7 129zM182 654 q-2 -100 9 -198t40 -173t81 -117t134 -32q66 0 116 29t83 75t49 104t16 118q0 88 -11 199t-47 209t-105 165t-185 67q-6 0 -23 -1t-35 -3t-34 -3t-22 -3q0 32 -10 5t-21 -92t-22 -157t-13 -192zM230 1518q0 26 11 47t41 21t48 -21t34 -47q-16 -24 -34 -46t-48 -22t-41 22 t-11 46zM524 1514q0 26 11 47t41 21t48 -21t34 -47q-16 -24 -34 -46t-48 -22t-41 22t-11 46z" />
<glyph unicode="&#xf7;" horiz-adv-x="1338" d="M14 446q0 16 7 28t29 22q32 -2 111 -3t169 -1t169 1t111 3q76 2 154 19t156 35t155 33t149 15q28 0 55 -8t27 -46q0 -28 -16 -38t-37 -12t-44 1t-35 1q-108 -22 -209 -40t-201 -32t-203 -21t-215 -7h-58t-89 1t-90 1h-59q-22 10 -29 20t-7 28zM512 1024q10 28 27 32t39 4 q24 0 46 -12t22 -40q0 -24 -10 -42t-26 -40zM538 68q0 40 27 53t79 13q14 0 21 -8t10 -19t4 -22t1 -19q0 -26 -11 -47t-43 -21q-34 0 -61 16t-27 54z" />
<glyph unicode="&#xf8;" horiz-adv-x="890" d="M12 50q0 18 12 43t28 51t33 49t27 39q10 14 41 57t72 100t87 122t87 123t71 101t40 57q12 18 33 56t48 87t56 103t54 103t45 88t28 59h108q0 -52 -33 -136t-88 -185t-126 -212t-145 -219t-146 -206t-129 -172t-94 -118t-41 -44q-24 0 -46 12t-22 42zM46 630q0 36 3 103 t11 148t25 165t45 153t68 113t98 44q20 0 32 -11t18 -26t6 -32t-6 -31q98 14 175 -17t133 -91t94 -141t62 -168t34 -172t10 -153q0 -94 -20 -186t-68 -165t-127 -119t-195 -46q-82 0 -143 30t-106 81t-73 117t-45 136t-24 139t-7 129zM182 654q-2 -100 9 -198t40 -173 t81 -117t134 -32q66 0 116 29t83 75t49 104t16 118q0 88 -11 199t-47 209t-105 165t-185 67q-6 0 -23 -1t-35 -3t-34 -3t-22 -3q0 32 -10 5t-21 -92t-22 -157t-13 -192z" />
<glyph unicode="&#xf9;" d="M84 1166v42t1 65t2 66t1 43q0 22 13 27t30 0t33 -13t24 -14q-8 -56 -11 -168t3 -248t23 -280t52 -261t88 -192t133 -75q66 0 112 50t76 128t47 174t26 188t11 169t2 119q0 28 -7 57t-15 57t-12 57t0 59q10 18 26 34t34 23t37 3t35 -28l208 -1114q6 -24 2 -37t-14 -21 t-24 -10t-26 -2q-22 0 -42 4t-28 30l-98 332q-18 -62 -43 -137t-65 -141t-98 -110t-140 -44q-100 0 -168 67t-112 174t-68 240t-34 263t-12 243t-2 181zM362 1856l66 64q56 -48 95 -88t71 -81t62 -88t72 -111q0 -4 1 -16t1 -18q0 -24 -11 -45t-39 -21q-32 0 -48 21t-36 45 q-38 48 -79 106t-76 109t-57 86t-22 37z" />
<glyph unicode="&#xfa;" d="M84 1166v42t1 65t2 66t1 43q0 22 13 27t30 0t33 -13t24 -14q-8 -56 -11 -168t3 -248t23 -280t52 -261t88 -192t133 -75q66 0 112 50t76 128t47 174t26 188t11 169t2 119q0 28 -7 57t-15 57t-12 57t0 59q10 18 26 34t34 23t37 3t35 -28l208 -1114q6 -24 2 -37t-14 -21 t-24 -10t-26 -2q-22 0 -42 4t-28 30l-98 332q-18 -62 -43 -137t-65 -141t-98 -110t-140 -44q-100 0 -168 67t-112 174t-68 240t-34 263t-12 243t-2 181zM346 1518q0 44 36 90t86 94t100 98t78 102q4 0 16 3t16 3q22 0 39 -5t27 -33q-20 -78 -55 -134t-78 -101t-93 -83 t-102 -80q-28 4 -49 13t-21 33z" />
<glyph unicode="&#xfb;" d="M84 1166v42t1 65t2 66t1 43q0 22 13 27t30 0t33 -13t24 -14q-8 -56 -11 -168t3 -248t23 -280t52 -261t88 -192t133 -75q66 0 112 50t76 128t47 174t26 188t11 169t2 119q0 28 -7 57t-15 57t-12 57t0 59q10 18 26 34t34 23t37 3t35 -28l208 -1114q6 -24 2 -37t-14 -21 t-24 -10t-26 -2q-22 0 -42 4t-28 30l-98 332q-18 -62 -43 -137t-65 -141t-98 -110t-140 -44q-100 0 -168 67t-112 174t-68 240t-34 263t-12 243t-2 181zM190 1528q0 8 1 20t3 14l384 328l318 -440q0 -2 1 -8t1 -10q0 -22 -10 -35t-25 -19t-34 -7t-35 -1q-24 0 -48 22t-47 54 t-46 69t-43 67t-36 47t-28 9l-274 -188q-2 0 -8 -1t-10 -1q-38 0 -51 25t-13 55z" />
<glyph unicode="&#xfc;" d="M84 1166v42t1 65t2 66t1 43q0 22 13 27t30 0t33 -13t24 -14q-8 -56 -11 -168t3 -248t23 -280t52 -261t88 -192t133 -75q66 0 112 50t76 128t47 174t26 188t11 169t2 119q0 28 -7 57t-15 57t-12 57t0 59q10 18 26 34t34 23t37 3t35 -28l208 -1114q6 -24 2 -37t-14 -21 t-24 -10t-26 -2q-22 0 -42 4t-28 30l-98 332q-18 -62 -43 -137t-65 -141t-98 -110t-140 -44q-100 0 -168 67t-112 174t-68 240t-34 263t-12 243t-2 181zM330 1518q0 26 11 47t41 21t48 -21t34 -47q-16 -24 -34 -46t-48 -22t-41 22t-11 46zM624 1514q0 26 11 47t41 21t48 -21 t34 -47q-16 -24 -34 -46t-48 -22t-41 22t-11 46z" />
<glyph unicode="&#xfd;" horiz-adv-x="1008" d="M30 1306q0 32 27 57t57 25q16 0 32 -7t20 -27l98 -626q10 -52 52 -94t94 -42q80 0 133 40t85 104t48 144t21 161t2 154t-5 125q0 6 9 17t19 22t21 19t17 8q18 4 35 -6t30 -27t22 -35t11 -30q-10 -126 0 -245t25 -236l30 -234t15 -241q0 -68 -28 -139t-77 -128t-118 -94 t-149 -37q-18 0 -39 2t-39 8t-30 20t-12 38q0 4 1 16t3 16q76 6 141 32t113 68t75 99t27 127q0 8 -1 56t-4 103t-10 99t-21 44q-46 -46 -86 -83t-80 -63t-84 -41t-98 -15q-70 0 -117 23t-78 63t-51 95t-34 119q-2 8 -9 42t-16 83t-20 106t-21 113t-19 105t-15 79q0 2 -1 8 t-1 10zM304 1518q0 44 36 90t86 94t100 98t78 102q4 0 16 3t16 3q22 0 39 -5t27 -33q-20 -78 -55 -134t-78 -101t-93 -83t-102 -80q-28 4 -49 13t-21 33z" />
<glyph unicode="&#xfe;" horiz-adv-x="1142" d="M128 1400q0 38 13 60t53 22q4 0 17 -1t17 -1q6 -54 13 -100t12 -89t8 -90t3 -105q72 26 169 56t199 48t199 16t169 -40t109 -118t19 -218q0 -90 -33 -165t-89 -138t-128 -114t-149 -92t-155 -74t-144 -59q8 -22 9 -74t-6 -108t-25 -101t-50 -53q-26 -6 -43 29t-28 93 t-16 129t-7 136t0 115t4 66l-138 916q0 4 -1 24t-1 30zM328 846q0 -60 5 -112t14 -105t22 -109t29 -122q0 -8 12 -22t20 -14q102 0 198 48t171 123t121 169t46 188q0 60 -5 98t-26 61t-66 32t-123 11q-60 0 -133 -13t-136 -41t-106 -76t-43 -116z" />
<glyph unicode="&#xff;" horiz-adv-x="1008" d="M30 1306q0 32 27 57t57 25q16 0 32 -7t20 -27l98 -626q10 -52 52 -94t94 -42q80 0 133 40t85 104t48 144t21 161t2 154t-5 125q0 6 9 17t19 22t21 19t17 8q18 4 35 -6t30 -27t22 -35t11 -30q-10 -126 0 -245t25 -236l30 -234t15 -241q0 -68 -28 -139t-77 -128t-118 -94 t-149 -37q-18 0 -39 2t-39 8t-30 20t-12 38q0 4 1 16t3 16q76 6 141 32t113 68t75 99t27 127q0 8 -1 56t-4 103t-10 99t-21 44q-46 -46 -86 -83t-80 -63t-84 -41t-98 -15q-70 0 -117 23t-78 63t-51 95t-34 119q-2 8 -9 42t-16 83t-20 106t-21 113t-19 105t-15 79q0 2 -1 8 t-1 10zM290 1518q0 26 11 47t41 21t48 -21t34 -47q-16 -24 -34 -46t-48 -22t-41 22t-11 46zM584 1514q0 26 11 47t41 21t48 -21t34 -47q-16 -24 -34 -46t-48 -22t-41 22t-11 46z" />
<glyph unicode="&#x152;" horiz-adv-x="2260" d="M30 646q0 76 10 173t39 190t81 169t136 110q192 -8 330 -46t227 -122t131 -220t42 -338q0 -118 -35 -220t-101 -179t-162 -121t-218 -44q-130 0 -221 59t-148 152t-84 209t-27 228zM162 648q0 -96 19 -189t64 -166t118 -117t181 -44q56 0 112 13t103 42t82 72t49 103 q0 12 1 41t2 60t1 59v40q0 82 -15 186t-55 195t-111 153t-185 62q-16 0 -51 -4t-74 -12t-77 -21t-62 -31q-32 -74 -52 -128t-31 -102t-15 -98t-4 -114zM840 1386q14 0 40 -3t50 -12t41 -26t11 -47q78 20 172 45t194 46t201 35t195 14q8 0 23 -1t31 -2t28 -3t14 -2 q22 -28 26 -46t0 -30t-13 -17t-13 -5q-90 2 -206 -14t-235 -43t-229 -64t-188 -79q8 -70 23 -145t7 -145q188 0 374 13t374 13q22 0 36 -13t14 -35q0 -18 -7 -29t-29 -21q-22 -2 -69 -7t-106 -12t-123 -14t-123 -14t-106 -13t-69 -8q-6 0 -25 -4t-40 -9t-40 -11t-25 -8 q0 -120 11 -241t23 -247q110 -6 218 -2t216 12l216 16t218 10q14 0 56 1t86 -5t79 -24t35 -56q0 -20 -7 -31t-27 -21q-144 6 -292 7t-296 -8t-291 -32t-275 -67q-46 0 -75 15t-29 67q0 30 6 47t13 32t13 33t6 52q0 134 -18 281t-39 297t-38 298t-17 282z" />
<glyph unicode="&#x153;" horiz-adv-x="1686" d="M46 630q0 36 3 103t11 148t25 165t45 153t68 113t98 44q20 0 32 -11t18 -26t6 -32t-6 -31q98 14 175 -17t133 -91t94 -141t62 -168t34 -172t10 -153q0 -94 -20 -186t-68 -165t-127 -119t-195 -46q-82 0 -143 30t-106 81t-73 117t-45 136t-24 139t-7 129zM182 654 q-2 -100 9 -198t40 -173t81 -117t134 -32q66 0 116 29t83 75t49 104t16 118q0 88 -11 199t-47 209t-105 165t-185 67q-6 0 -23 -1t-35 -3t-34 -3t-22 -3q0 32 -10 5t-21 -92t-22 -157t-13 -192zM688 828q0 92 24 191t77 179t135 132t198 52q86 0 181 -41t172 -108t123 -153 t32 -178q-6 -38 -58 -58t-129 -31t-168 -16t-176 -9t-152 -11t-97 -23q-6 -56 3 -126t33 -142t62 -141t89 -124t114 -89t137 -38q60 0 102 34t76 74t68 74t78 34q34 0 58 -9t24 -57q0 -54 -44 -103t-107 -86t-133 -59t-122 -22q-104 0 -188 42t-151 112t-116 160t-81 185 t-48 187t-16 168zM850 902h22t34 -1t34 -1h22q62 6 129 2t135 -4t134 12t128 52q0 54 -38 107t-95 96t-123 69t-122 26q-66 0 -114 -39t-79 -94t-47 -117t-20 -108z" />
<glyph unicode="&#x178;" horiz-adv-x="1240" d="M26 1408v8q0 2 2 6q6 6 16 12t21 11t19 8t10 1l678 -592q18 10 34 34t30 50t22 48t12 30q36 66 63 130t51 121t50 105t62 86q32 0 48 -17t20 -42t2 -55t-2 -54l-302 -544q0 -8 1 -62t2 -132t3 -167t3 -167t2 -132t1 -62q-6 -8 -30 -20t-36 -12q-4 0 -16 12t-16 20 l-68 666l-646 626q-16 16 -26 38t-10 46zM406 1650q0 26 11 47t41 21t48 -21t34 -47q-16 -24 -34 -46t-48 -22t-41 22t-11 46zM700 1646q0 26 11 47t41 21t48 -21t34 -47q-16 -24 -34 -46t-48 -22t-41 22t-11 46z" />
<glyph unicode="&#x2c6;" horiz-adv-x="662" d="M-2 1528q0 8 1 20t3 14l384 328l318 -440q0 -2 1 -8t1 -10q0 -22 -10 -35t-25 -19t-34 -7t-35 -1q-24 0 -48 22t-47 54t-46 69t-43 67t-36 47t-28 9l-274 -188q-2 0 -8 -1t-10 -1q-38 0 -51 25t-13 55z" />
<glyph unicode="&#x2dc;" horiz-adv-x="1056" d="M48 1502q2 72 24 144t63 129t102 92t139 35q62 2 107 -20t84 -57t76 -78t83 -81q34 0 74 28t76 63t63 68t35 43q28 -22 49 -42t17 -60q-16 -16 -49 -55t-75 -78t-87 -69t-83 -30q-68 -6 -117 23t-91 70t-84 83t-92 64q-42 0 -69 -23t-45 -57t-31 -73t-28 -73t-36 -57 t-55 -23q-16 0 -28 7t-22 27z" />
<glyph unicode="&#x2000;" horiz-adv-x="1054" />
<glyph unicode="&#x2001;" horiz-adv-x="2108" />
<glyph unicode="&#x2002;" horiz-adv-x="1054" />
<glyph unicode="&#x2003;" horiz-adv-x="2108" />
<glyph unicode="&#x2004;" horiz-adv-x="702" />
<glyph unicode="&#x2005;" horiz-adv-x="527" />
<glyph unicode="&#x2006;" horiz-adv-x="351" />
<glyph unicode="&#x2007;" horiz-adv-x="351" />
<glyph unicode="&#x2008;" horiz-adv-x="263" />
<glyph unicode="&#x2009;" horiz-adv-x="421" />
<glyph unicode="&#x200a;" horiz-adv-x="117" />
<glyph unicode="&#x2010;" horiz-adv-x="1018" d="M38 630q0 6 2 10q0 4 2 6q92 14 175 22t164 11t164 4t175 1h55t69 -1t59 -1h29l34 -102q-158 -6 -306 -12q-64 -2 -131 -5t-131 -6t-122 -5t-102 -4h-40q-34 0 -65 22t-31 60z" />
<glyph unicode="&#x2011;" horiz-adv-x="1018" d="M38 630q0 6 2 10q0 4 2 6q92 14 175 22t164 11t164 4t175 1h55t69 -1t59 -1h29l34 -102q-158 -6 -306 -12q-64 -2 -131 -5t-131 -6t-122 -5t-102 -4h-40q-34 0 -65 22t-31 60z" />
<glyph unicode="&#x2012;" horiz-adv-x="1018" d="M38 630q0 6 2 10q0 4 2 6q92 14 175 22t164 11t164 4t175 1h55t69 -1t59 -1h29l34 -102q-158 -6 -306 -12q-64 -2 -131 -5t-131 -6t-122 -5t-102 -4h-40q-34 0 -65 22t-31 60z" />
<glyph unicode="&#x2013;" horiz-adv-x="1114" d="M38 630q0 6 2 10q0 4 2 6q102 14 193.5 22t181 11t181 4t193.5 1h60.5t76 -1t65 -1h31.5l38 -102q-174 -6 -338 -12q-70 -2 -144 -5t-144.5 -6t-134.5 -5t-113 -4h-44q-38 0 -72 22t-34 60z" />
<glyph unicode="&#x2014;" horiz-adv-x="2138" d="M38 630q0 6 4 10q0 4 5 6q203 14 386 22t362 11t362 4t386 1h121.5t152.5 -1t130 -1h64l75 -102q-349 -6 -675 -12q-142 -2 -289.5 -5t-289 -6t-269.5 -5t-225 -4h-88q-75 0 -143.5 22t-68.5 60z" />
<glyph unicode="&#x2018;" horiz-adv-x="232" d="M56 976q0 24 2 71t13 94t32 83t57 36q38 -126 27 -195t-40 -97t-60 -22t-31 30z" />
<glyph unicode="&#x2019;" horiz-adv-x="232" d="M56 976q0 24 2 71t13 94t32 83t57 36q38 -126 27 -195t-40 -97t-60 -22t-31 30z" />
<glyph unicode="&#x201a;" horiz-adv-x="232" d="M64 26q0 24 2 71t13 94t32 83t57 36q38 -126 27 -195t-40 -97t-60 -22t-31 30z" />
<glyph unicode="&#x201c;" horiz-adv-x="626" d="M122 1049q-2 63 11 116t36 84t55 33t72 -34q0 -42 -10 -78t-21 -72t-21 -74t-10 -80q0 -28 4 -43t8 -27t8 -27t4 -43q0 -22 -20 -21t-46 1q-34 62 -51 132t-19 133zM408 780q0 174 16 267t39 135t48 49t43 7q24 0 40 -14t16 -34q0 -2 -1 -4t-1 -6v-6q-2 -4 -12 -23 t-23 -40t-24 -39t-13 -22q-20 -46 -27 -75t-6 -56t6 -58t11 -81q0 -8 -15 -19t-23 -11t-20 3t-24 8t-21 10t-9 9z" />
<glyph unicode="&#x201d;" horiz-adv-x="626" d="M72 1168q0 22 14 36t36 14q16 0 38 -7t43 -52t36 -144t15 -281q0 -8 -26 -20t-40 -12q-8 0 -21 12t-13 20q4 52 9 85t6 62t-6 60t-25 79q-2 4 -11 23t-21 42t-21 42t-11 23q0 2 -1 8t-1 10zM354 1230q36 38 65 35t50 -35t32 -88t9 -124t-17 -141t-45 -139h-41t-19 22 q0 30 3 45t8 28t8 29t3 46q0 44 -9 84t-19 78t-19 77t-9 83z" />
<glyph unicode="&#x201e;" horiz-adv-x="626" d="M88 271q-2 63 11 116t36 84t55 33t72 -34q0 -42 -10 -78t-21 -72t-21 -74t-10 -80q0 -28 4 -43t8 -27t8 -27t4 -43q0 -22 -20 -21t-46 1q-34 62 -51 132t-19 133zM374 2q0 174 16 267t39 135t48 49t43 7q24 0 40 -14t16 -34q0 -2 -1 -4t-1 -6v-6q-2 -4 -12 -23t-23 -40 t-24 -39t-13 -22q-20 -46 -27 -75t-6 -56t6 -58t11 -81q0 -8 -15 -19t-23 -11t-20 3t-24 8t-21 10t-9 9z" />
<glyph unicode="&#x2026;" horiz-adv-x="1706" />
<glyph unicode="&#x202f;" horiz-adv-x="421" />
<glyph unicode="&#x205f;" horiz-adv-x="527" />
<glyph unicode="&#x20ac;" horiz-adv-x="1190" d="M16 98q0 38 36 60t89 37t111 31t102 44t64 73t-4 119q-4 0 -17 1t-19 1q-32 0 -63 -11t-61 -23t-60 -23t-62 -11q-22 0 -37 14t-15 36q0 34 22 54t56 33t76 20t83 15t75 21t54 37q34 44 64 99t58 113t55 115t55 103q12 22 34 56t43 66t36 55t17 23h100v-66 q-96 -114 -169 -237t-129 -259q36 16 77 34t84 33t87 24t86 9q20 0 37 -3t27 -31l-34 -32l-364 -134q-32 -10 -51 -39t-30 -65t-14 -71t-3 -57h16h16q20 6 72 25t110 40t110 41t72 28l66 -34q-18 -38 -58 -59t-88 -36t-99 -26t-93 -28t-69 -44t-27 -73q0 -34 24 -48t56 -18 t65 -2t51 2q52 0 97 16t89 36t89 36t95 16q4 0 16 -1t16 -1q-20 -60 -74 -104t-122 -73t-139 -43t-125 -14q-60 0 -105 27t-80 58t-62 58t-49 27q-40 0 -77 -16t-73 -36t-73 -36t-77 -16q-6 0 -18 1t-22 4t-18 10t-8 19z" />
<glyph unicode="&#x25fc;" horiz-adv-x="1460" d="M0 0v1460h1460v-1460h-1460z" />
</font>
</defs>
</svg>
