<svg xmlns="http://www.w3.org/2000/svg" style="isolation:isolate" viewBox="-8.695481240964511e-15 0.027198769577609028 420 504.9456024608447">
  <path d="M172 .027c1.367 5.278 2.897 6.79 4.167 10.436 4.557 12.867 8.295 9.548 12.833 24.564 4.29 8.58 14.514 27.088 22 34 23.68 23.152 36.846 43.923 63 65 15.742 12.4 23.538 22.62 40.863 33.237 13.458 7.66 25.85 16.63 37.03 26.882 13.384 11.13 27.107 29.38 34.065 38.466 5.33 12.696 12.323 24.692 19.637 36.49 10.045 15.48 13.653 33.533 14.09 51.32.705 17.93-.614 32.673.315 50.605-1.996 15.35-4.114 33.243-7.4 48.327-10.6 23.007-23.267 29.673-31.6 38.673-12.156 12.143-19.898 14.055-34.59 23.303-14.233 7.77-30.565 10.873-46.41 14.697-36.67 9.854-75.656 10.82-113.37 6.51-16.94-.85-33.76-3.547-49.857-8.47-29.624-11.797-57.608-26.86-83.188-44.912-13.705-9.578-22.236-16.738-30.697-30.58C7.49 394.292 5.976 365.47.548 338.585c-2.3-26.956 2.554-54.894 16.046-79.216 9.386-18.71 18.352-37.52 27.92-56.1 12.874-22.04 27.354-42.966 44.202-62.637q2.104-4.924 5.034-7.296 5.21-4.656 5.208-4.744c2.214-2.312 1.4-3.172 6.25-7.59 19.574-20.194 28.955-24.93 42.792-48.976 8.944-14.29 15.5-26.5 17-37 .794-7.025 5.08-23.882 7-35z" fill="#31abe1" stroke-width="1.333" stroke="rgba(0,0,0,0)"/>
</svg>